<svg width="70" height="70" viewBox="0 0 70 70" fill="none" xmlns="http://www.w3.org/2000/svg">
<path d="M9.80002 7.93341H60.2C61.2309 7.93341 62.0667 8.76922 62.0667 9.80008V41.5334H7.93335V9.80008C7.93335 8.76922 8.76916 7.93341 9.80002 7.93341Z" fill="white"/>
<path d="M7.93335 41.5334H62.0667V50.8667C62.0667 51.8976 61.2309 52.7334 60.2 52.7334H9.80002C8.76916 52.7334 7.93335 51.8976 7.93335 50.8667V41.5334Z" fill="#EFEFEF"/>
<path d="M26.5998 19.1333C26.5998 23.2572 23.2571 26.5999 19.1332 26.5999C15.0093 26.5999 11.6665 23.2572 11.6665 19.1333C11.6665 15.0094 15.0093 11.6666 19.1332 11.6666C23.2571 11.6666 26.5998 15.0094 26.5998 19.1333Z" fill="#E8C8AA"/>
<path d="M26.6 19.1333H21C19.9691 19.1333 19.1333 18.2975 19.1333 17.2666V11.6666C23.2572 11.6666 26.6 15.0094 26.6 19.1333Z" fill="#E8C8AA"/>
<path d="M14.4665 34.0667H12.5998C12.0844 34.0667 11.6665 33.6488 11.6665 33.1334V31.2667C11.6665 30.7513 12.0844 30.3334 12.5998 30.3334H14.4665C14.9819 30.3334 15.3998 30.7513 15.3998 31.2667V33.1334C15.3998 33.6488 14.9819 34.0667 14.4665 34.0667Z" fill="#E8C8AA"/>
<path d="M55.5334 30.3334H57.4001C57.9155 30.3334 58.3334 30.7513 58.3334 31.2667V33.1334C58.3334 33.6488 57.9155 34.0667 57.4001 34.0667H55.5334C55.018 34.0667 54.6001 33.6488 54.6001 33.1334V31.2667C54.6001 30.7513 55.018 30.3334 55.5334 30.3334Z" fill="#E8C8AA"/>
<path d="M35.9333 13.5334H49.9333C50.4488 13.5334 50.8667 13.9513 50.8667 14.4667V16.3334C50.8667 16.8488 50.4488 17.2667 49.9333 17.2667H35.9333C35.4179 17.2667 35 16.8488 35 16.3334V14.4667C35 13.9513 35.4179 13.5334 35.9333 13.5334Z" fill="#E8C8AA"/>
<path d="M35.9333 21H54.6C55.1154 21 55.5333 21.4179 55.5333 21.9333V23.8C55.5333 24.3154 55.1154 24.7333 54.6 24.7333H35.9333C35.4179 24.7333 35 24.3154 35 23.8V21.9333C35 21.4179 35.4179 21 35.9333 21Z" fill="#E8C8AA"/>
<path d="M28.4666 52.7334H41.5332V62.0667H28.4666V52.7334Z" fill="#BCBCBC"/>
<path d="M60.2 7H9.8C8.25417 7.00182 7.00182 8.25417 7 9.8V50.8667C7.00182 52.4125 8.25417 53.6648 9.8 53.6667H27.5333V61.1333H21.9333V63H48.0667V61.1333H42.4667V53.6667H60.2C61.7458 53.6648 62.9982 52.4125 63 50.8667V9.8C62.9982 8.25417 61.7458 7.00182 60.2 7ZM40.6 61.1333H29.4V53.6667H40.6V61.1333ZM61.1333 50.8667C61.1329 51.3821 60.7154 51.7995 60.2 51.8H9.8C9.28457 51.7995 8.86712 51.3821 8.86667 50.8667V42.4667H61.1333V50.8667ZM8.86667 40.6V9.8C8.86712 9.28457 9.28457 8.86712 9.8 8.86667H60.2C60.7154 8.86712 61.1329 9.28457 61.1333 9.8V40.6H8.86667Z" fill="#181940"/>
<path d="M36.8666 47.1333C36.8666 48.1641 36.0308 48.9999 35 48.9999C33.9691 48.9999 33.1333 48.1641 33.1333 47.1333C33.1333 46.1024 33.9691 45.2666 35 45.2666C36.0308 45.2666 36.8666 46.1024 36.8666 47.1333Z" fill="#181940"/>
<path d="M19.1334 27.5334C23.7727 27.5334 27.5334 23.7727 27.5334 19.1334C27.5334 14.4941 23.7727 10.7334 19.1334 10.7334C14.4941 10.7334 10.7334 14.4941 10.7334 19.1334C10.7384 23.7704 14.4964 27.5284 19.1334 27.5334ZM25.5924 18.2001H21.0001C20.4846 18.1996 20.0672 17.7822 20.0667 17.2667V12.6748C22.9278 13.0918 25.175 15.339 25.5924 18.2001ZM18.2001 12.6748V17.2667C18.2019 18.8126 19.4542 20.0649 21.0001 20.0667H25.5924C25.113 23.3981 22.1804 25.8194 18.8185 25.6594C15.457 25.4995 12.7678 22.8098 12.6074 19.4483C12.4474 16.0864 14.8687 13.1538 18.2001 12.6748Z" fill="#181940"/>
<path d="M21.9333 33.1334H29.4V35.0001H21.9333V33.1334Z" fill="#181940"/>
<path d="M31.2666 33.1334H33.1333V35.0001H31.2666V33.1334Z" fill="#181940"/>
<path d="M18.2 33.1334H20.0666V35.0001H18.2V33.1334Z" fill="#181940"/>
<path d="M31.2666 36.8666H33.1333V38.7333H31.2666V36.8666Z" fill="#181940"/>
<path d="M15.3999 36.8666H29.3999V38.7333H15.3999V36.8666Z" fill="#181940"/>
<path d="M11.6665 36.8666H13.5332V38.7333H11.6665V36.8666Z" fill="#181940"/>
<path d="M16.3334 33.1333V31.2667C16.332 30.2363 15.4971 29.4014 14.4667 29.4H12.6001C11.5697 29.4014 10.7348 30.2363 10.7334 31.2667V33.1333C10.7348 34.1637 11.5697 34.9986 12.6001 35H14.4667C15.4971 34.9986 16.332 34.1637 16.3334 33.1333ZM14.4667 33.1333H12.6001V31.2667H14.4667V33.1333Z" fill="#181940"/>
<path d="M21.9333 29.4H29.4V31.2667H21.9333V29.4Z" fill="#181940"/>
<path d="M31.2666 29.4H33.1333V31.2667H31.2666V29.4Z" fill="#181940"/>
<path d="M18.2 29.4H20.0666V31.2667H18.2V29.4Z" fill="#181940"/>
<path d="M40.6001 33.1334H48.0668V35.0001H40.6001V33.1334Z" fill="#181940"/>
<path d="M36.8667 33.1334H38.7334V35.0001H36.8667V33.1334Z" fill="#181940"/>
<path d="M49.9333 33.1334H51.8V35.0001H49.9333V33.1334Z" fill="#181940"/>
<path d="M36.8667 36.8666H38.7334V38.7333H36.8667V36.8666Z" fill="#181940"/>
<path d="M40.6001 36.8666H54.6001V38.7333H40.6001V36.8666Z" fill="#181940"/>
<path d="M56.4666 36.8666H58.3332V38.7333H56.4666V36.8666Z" fill="#181940"/>
<path d="M57.3998 29.4H55.5332C54.5028 29.4014 53.6679 30.2363 53.6665 31.2667V33.1333C53.6679 34.1637 54.5028 34.9986 55.5332 35H57.3998C58.4302 34.9986 59.2651 34.1637 59.2665 33.1333V31.2667C59.2651 30.2363 58.4302 29.4014 57.3998 29.4ZM55.5332 33.1333V31.2667H57.3998L57.4007 33.1333H55.5332Z" fill="#181940"/>
<path d="M40.6001 29.4H48.0668V31.2667H40.6001V29.4Z" fill="#181940"/>
<path d="M36.8667 29.4H38.7334V31.2667H36.8667V29.4Z" fill="#181940"/>
<path d="M49.9333 29.4H51.8V31.2667H49.9333V29.4Z" fill="#181940"/>
<path d="M35.9333 18.2H49.9333C50.9637 18.1986 51.7986 17.3637 51.8 16.3333V14.4667C51.7986 13.4363 50.9637 12.6014 49.9333 12.6H35.9333C34.9029 12.6014 34.068 13.4363 34.0667 14.4667V16.3333C34.068 17.3637 34.9029 18.1986 35.9333 18.2ZM35.9333 14.4667H49.9333L49.9342 16.3333H35.9333V14.4667Z" fill="#181940"/>
<path d="M56.4667 23.7999V21.9333C56.4653 20.9029 55.6304 20.068 54.6 20.0666H35.9333C34.9029 20.068 34.068 20.9029 34.0667 21.9333V23.7999C34.068 24.8303 34.9029 25.6652 35.9333 25.6666H54.6C55.6304 25.6652 56.4653 24.8303 56.4667 23.7999ZM35.9333 21.9333H54.6L54.6009 23.7999H35.9333V21.9333Z" fill="#181940"/>
<path d="M30.3335 14.4666H32.2002V16.3333H30.3335V14.4666Z" fill="#181940"/>
<path d="M30.3335 21.9334H32.2002V23.8001H30.3335V21.9334Z" fill="#181940"/>
</svg>
