<svg width="628" height="539" viewBox="0 0 628 539" fill="none" xmlns="http://www.w3.org/2000/svg">
<g clip-path="url(#clip0_3_965)">
<path d="M495.148 96.1579L628 1.6012L615.884 3.07781L492.052 91.817L495.148 96.1579Z" fill="#673D15"/>
<path d="M194.556 265.174L197.253 269.78L150.612 297.09L147.915 292.485L194.556 265.174Z" fill="#673D15"/>
<path d="M432.254 133.269L478.886 105.854L476.182 101.264L432.2 127.113L432.254 133.269Z" fill="#673D15"/>
<path d="M407.402 140.967L410.119 145.562L361.6 174.249L358.883 169.655L407.402 140.967Z" fill="#673D15"/>
<path d="M291.449 215.443L338.082 187.637L335.342 183.047L291.698 209.074L291.449 215.443Z" fill="#673D15"/>
<path d="M220.797 256.397L269.28 227.363L266.54 222.773L220.85 250.153L220.797 256.397Z" fill="#673D15"/>
<path d="M0.889381 354.316L126.02 309.911L123.244 305.57L0.889381 348.766V354.316Z" fill="#673D15"/>
<path d="M494.935 94.5389L625.153 1.63673L615.332 0L490.825 88.7392L494.935 94.5389ZM620.616 2.68637L495.362 92.066L493.298 89.1662L615.759 1.86801L620.616 2.68637Z" fill="#181940"/>
<path d="M150.288 295.412L198.468 267.196L194.874 261.058L146.694 289.274L150.288 295.412ZM196.031 266.573L150.928 292.975L149.131 289.915L194.234 263.513L196.031 266.573Z" fill="#181940"/>
<path d="M431.364 131.952L480.096 103.31L476.484 97.1719L431.275 123.733L431.364 131.952ZM477.676 102.687L433.126 128.875L433.09 124.765L475.862 99.6092L477.676 102.687Z" fill="#181940"/>
<path d="M361.3 172.622L411.348 143.036L407.719 136.916L357.67 166.519L361.3 172.622ZM408.911 142.395L361.922 170.184L360.107 167.124L407.096 139.335L408.911 142.395Z" fill="#181940"/>
<path d="M290.488 214.198L339.309 185.093L335.662 178.973L290.844 205.694L290.488 214.198ZM336.872 184.47L292.41 210.978L292.588 206.726L335.057 181.41L336.872 184.47Z" fill="#181940"/>
<path d="M219.89 255.116L270.508 224.801L266.86 218.699L219.961 246.79L219.89 255.116ZM268.07 224.196L221.705 251.967L221.74 247.804L266.256 221.154L268.07 224.196Z" fill="#181940"/>
<path d="M-6.10352e-05 352.715L127.372 307.527L123.636 301.639L122.96 301.87L-6.10352e-05 345.279V352.715ZM124.668 306.584L1.77913 350.189V346.524L122.871 303.774L124.668 306.584Z" fill="#181940"/>
<path d="M484.028 19.8186L471.645 27.2373L469.1 25.7607L481.466 18.342L484.028 19.8186Z" fill="#FFD5AD"/>
<path d="M484.028 19.8186L489.988 60.1853V118.36L477.623 125.779L473.353 118.36V65.5047L471.645 27.2372L484.028 19.8186Z" fill="#FFD5AD"/>
<path d="M480.825 30.5463L486.786 70.9308V129.088L474.42 136.507L470.15 129.088V76.2324L468.442 37.9649L480.825 30.5463Z" fill="#FFD5AD"/>
<path d="M477.303 127.007L490.878 118.859V60.1853L484.846 19.2493L484.028 18.769L470.738 26.7391L472.463 65.5403V118.592L477.303 127.007ZM489.099 117.844L477.943 124.534L474.243 118.111V65.5047L472.552 27.7176L483.334 21.2596L489.099 60.3277V117.844Z" fill="#181940"/>
<path d="M470.737 90.5539V82.3346L469.1 81.3917V25.7607L471.662 27.2373L477.623 67.6218V96.3892C476.519 96.2824 475.754 97.1008 475.754 98.5774C475.754 100.054 476.519 101.744 477.623 102.918V106.672C475.185 105.889 473.352 107.348 473.352 110.355C473.352 113.361 475.167 116.919 477.623 118.948V125.779L472.303 131.401L469.1 129.551V89.5932L470.737 90.5539Z" fill="#181940"/>
<path d="M468.211 81.8898V25.2448L481.466 17.2924L484.526 19.0537L472.623 27.6821L478.512 67.604V97.3498L477.551 97.2609C477.302 97.2431 477.142 97.2964 477 97.421C476.769 97.6167 476.644 98.0437 476.644 98.5596C476.644 99.7515 477.302 101.264 478.281 102.296L478.53 102.545V107.864L477.374 107.49C476.786 107.295 475.932 107.188 475.274 107.668C474.634 108.131 474.278 109.074 474.278 110.319C474.278 113.006 475.932 116.332 478.228 118.236L478.548 118.503V126.099L472.499 132.486L468.246 130.031V88.0632L469.883 89.0061V82.8327L468.211 81.8898ZM481.466 19.3739L470.844 25.7429L471.645 26.2054L482.266 19.8364L481.466 19.3739ZM469.99 80.8758L471.627 81.8187V92.0838L469.99 91.1409V129.035L472.125 130.28L476.733 125.423V119.357C474.207 117.08 472.463 113.432 472.463 110.355C472.463 108.522 473.068 107.081 474.189 106.263C474.9 105.747 475.754 105.516 476.715 105.587V103.256C475.577 101.904 474.847 100.107 474.847 98.5774C474.847 97.5277 475.167 96.6738 475.772 96.1223C476.039 95.8732 476.359 95.6953 476.715 95.5886V67.7464L470.808 27.7888L470.346 27.522L469.954 27.2907V80.8758H469.99Z" fill="#181940"/>
<path d="M414.053 59.5271L401.687 66.9458L399.125 65.4692L411.508 58.0505L414.053 59.5271Z" fill="#FFD5AD"/>
<path d="M414.053 59.5271L420.031 99.9116V158.069L407.648 165.488L403.396 158.069V105.231L401.688 66.9458L414.053 59.5271Z" fill="#FFD5AD"/>
<path d="M410.851 68.7961L416.829 109.163V167.338L403.396 165.488L400.193 167.338V114.482L398.485 76.2148L410.851 68.7961Z" fill="#FFD5AD"/>
<path d="M407.328 166.733L420.903 158.585V99.9117L414.871 58.9756L414.053 58.4953L400.762 66.4655L402.488 105.267V158.318L407.328 166.733ZM419.141 157.571L407.986 164.26L404.285 157.838V105.231L402.595 67.4439L413.377 60.986L419.141 100.054V157.571Z" fill="#181940"/>
<path d="M400.762 130.262V122.043L399.126 121.1V65.4693L401.688 66.9459L407.648 107.33V136.098C406.545 135.991 405.78 136.809 405.78 138.286C405.78 139.745 406.545 141.453 407.648 142.627V146.381C405.21 145.598 403.378 147.057 403.378 150.063C403.378 153.07 405.193 156.628 407.648 158.656V165.488L402.328 171.11L399.126 169.259V129.32L400.762 130.262Z" fill="#181940"/>
<path d="M398.236 121.616V64.9711L411.491 57.0187L414.551 58.78L402.648 67.4084L408.537 107.33V137.076L407.576 136.987C407.327 136.969 407.167 137.023 407.025 137.147C406.794 137.343 406.669 137.77 406.669 138.286C406.669 139.478 407.327 140.99 408.306 142.022L408.555 142.271V147.59L407.398 147.217C406.811 147.021 405.957 146.914 405.299 147.395C404.658 147.857 404.303 148.8 404.303 150.045C404.303 152.732 405.957 156.059 408.252 157.962L408.573 158.229V165.826L402.523 172.212L398.271 169.757V127.772L399.908 128.715V122.541L398.236 121.616ZM411.508 59.0824L400.887 65.4515L401.687 65.914L412.309 59.545L411.508 59.0824ZM400.015 120.584L401.652 121.527V131.792L400.015 130.849V168.743L402.15 169.989L406.758 165.132V159.065C404.231 156.788 402.488 153.141 402.488 150.063C402.488 148.231 403.093 146.79 404.214 145.971C404.925 145.456 405.779 145.224 406.74 145.295V142.965C405.601 141.613 404.872 139.816 404.872 138.286C404.872 137.236 405.192 136.382 405.797 135.831C406.064 135.582 406.384 135.404 406.74 135.297V107.455L400.833 67.4974L400.371 67.2305L399.979 66.9992V120.584H400.015Z" fill="#181940"/>
<path d="M404.819 153.657V217.97C404.819 235.155 407.862 252.199 413.822 268.317C419.764 284.435 422.824 301.478 422.824 318.664V373.032L509.329 323.112V268.744C509.329 251.558 506.286 234.515 500.326 218.397C494.383 202.278 491.323 185.235 491.323 168.049V103.737L404.819 153.657Z" fill="#FFD5AD"/>
<path d="M421.917 374.58L510.2 323.628V268.744C510.2 251.398 507.158 234.355 501.144 218.076C495.219 202.012 492.195 185.164 492.195 168.032V102.189L403.912 153.141V217.97C403.912 235.315 406.954 252.359 412.968 268.637C418.892 284.72 421.917 301.55 421.917 318.682V374.58ZM508.403 322.596L423.678 371.502V318.682C423.678 301.336 420.636 284.293 414.622 268.014C408.698 251.932 405.673 235.102 405.673 217.97V154.173L490.416 105.267V168.032C490.416 185.377 493.458 202.421 499.472 218.699C505.396 234.764 508.421 251.612 508.421 268.744V322.596H508.403Z" fill="#181940"/>
<path d="M416.882 171.305C421.793 168.459 425.778 161.574 425.778 155.899C425.778 154.867 425.636 153.959 425.404 153.177L469.688 127.736C469.279 129.159 469.048 130.583 469.048 131.952C469.048 137.628 473.033 139.923 477.944 137.094C479.296 136.311 480.559 135.226 481.716 133.945V173.529C481.716 190.305 484.687 206.957 490.505 222.72C496.323 238.464 499.294 255.116 499.294 271.911V304.539C498.991 304.681 498.707 304.823 498.404 305.001C493.494 307.848 489.508 314.733 489.508 320.408C489.508 321.368 489.633 322.222 489.846 322.97L444.922 348.748C445.634 346.862 446.043 344.923 446.043 343.108C446.043 337.433 442.057 335.138 437.147 337.967C435.421 338.963 433.802 340.475 432.432 342.254V310.267C432.432 293.491 429.461 276.839 423.643 261.076C417.825 245.332 414.854 228.68 414.854 211.885V172.195C415.494 171.999 416.17 171.714 416.882 171.305Z" fill="#FFD5AD"/>
<path d="M413.893 178.226C418.804 175.397 422.789 168.494 422.789 162.819C422.789 161.787 422.647 160.88 422.415 160.097L466.717 134.674C466.308 136.098 466.077 137.521 466.077 138.891C466.077 144.566 470.062 146.861 474.972 144.032C476.325 143.249 477.588 142.164 478.744 140.883V180.467C478.744 197.244 481.716 213.896 487.534 229.658C493.352 245.403 496.323 262.055 496.323 278.849V311.477C496.02 311.619 495.736 311.761 495.433 311.939C490.523 314.786 486.537 321.671 486.537 327.346C486.537 328.306 486.662 329.16 486.875 329.908L441.951 355.686C442.662 353.8 443.072 351.861 443.072 350.047C443.072 344.371 439.086 342.076 434.176 344.905C432.45 345.901 430.831 347.414 429.461 349.193V317.205C429.461 300.429 426.49 283.777 420.672 268.014C414.854 252.27 411.882 235.618 411.882 218.824V179.115C412.505 178.919 413.181 178.635 413.893 178.226Z" fill="#FFD5AD"/>
<path d="M443.178 350.758L490.86 323.396L490.665 322.72C490.469 322.009 490.362 321.226 490.362 320.39C490.362 314.999 494.152 308.435 498.813 305.748C499.098 305.588 499.365 305.446 499.65 305.321L500.166 305.09V271.893C500.166 254.956 497.194 238.304 491.323 222.4C485.523 206.69 482.587 190.252 482.587 173.529V131.614L481.039 133.358C479.901 134.621 478.709 135.617 477.499 136.329C475.417 137.539 473.495 137.752 472.09 136.952C470.702 136.151 469.937 134.372 469.937 131.952C469.937 130.725 470.151 129.391 470.542 127.985L471.147 125.868L424.319 152.732L424.532 153.408C424.764 154.137 424.87 154.973 424.87 155.881C424.87 161.271 421.081 167.836 416.419 170.522C415.796 170.878 415.191 171.145 414.551 171.341L413.928 171.536V211.903C413.928 228.84 416.9 245.492 422.771 261.396C428.571 277.088 431.507 293.544 431.507 310.267V344.87L433.108 342.788C434.46 341.027 436.008 339.621 437.556 338.714C439.638 337.504 441.559 337.291 442.965 338.091C444.352 338.892 445.117 340.671 445.117 343.073C445.117 344.709 444.744 346.56 444.05 348.392L443.178 350.758ZM488.797 322.525L446.416 346.844C446.737 345.546 446.897 344.283 446.897 343.108C446.897 340.031 445.811 337.718 443.854 336.579C441.879 335.441 439.335 335.672 436.666 337.202C435.51 337.878 434.353 338.785 433.286 339.888V310.285C433.286 293.33 430.315 276.696 424.443 260.791C418.643 245.082 415.707 228.644 415.707 211.921V172.835C416.259 172.622 416.793 172.373 417.309 172.07C422.468 169.099 426.649 161.841 426.649 155.881C426.649 155.062 426.578 154.297 426.418 153.586L468.371 129.533C468.229 130.369 468.158 131.187 468.158 131.952C468.158 135.03 469.243 137.343 471.2 138.482C473.175 139.62 475.719 139.389 478.388 137.859C479.224 137.379 480.025 136.791 480.826 136.08V173.511C480.826 190.448 483.797 207.1 489.668 223.004C495.468 238.696 498.404 255.152 498.404 271.875V303.951C498.262 304.023 498.102 304.111 497.959 304.2C492.8 307.171 488.619 314.43 488.619 320.39C488.601 321.155 488.672 321.866 488.797 322.525Z" fill="#181940"/>
<path d="M451.716 275.249C442.956 273.552 438.238 259.876 441.178 244.702C444.117 229.528 453.602 218.602 462.362 220.299C471.121 221.996 475.839 235.672 472.9 250.847C469.96 266.021 460.475 276.946 451.716 275.249Z" fill="#FFD5AD"/>
<path d="M454.992 271.11C458.942 271.11 462.998 268.904 466.61 264.759C475.061 255.027 478.513 237.219 474.296 225.033C472.197 218.948 468.532 215.123 463.959 214.234C459.387 213.344 454.565 215.532 450.348 220.389C441.897 230.121 438.446 247.929 442.662 260.115C444.762 266.2 448.427 270.043 452.999 270.914C453.658 271.057 454.316 271.11 454.992 271.11ZM461.984 215.835C462.536 215.835 463.087 215.888 463.639 215.995C467.553 216.76 470.738 220.176 472.624 225.637C476.645 237.272 473.336 254.316 465.276 263.602C461.486 267.961 457.252 269.936 453.337 269.189C449.423 268.424 446.239 265.008 444.353 259.546C440.332 247.911 443.641 230.868 451.701 221.563C454.957 217.81 458.551 215.835 461.984 215.835Z" fill="#181940"/>
<path d="M452.999 283.83C458.123 283.83 463.408 280.966 468.105 275.54C479.189 262.784 483.708 239.407 478.193 223.431C475.453 215.515 470.702 210.515 464.778 209.377C458.853 208.22 452.59 211.085 447.092 217.418C436.008 230.174 431.489 253.551 437.004 269.527C439.744 277.443 444.495 282.443 450.419 283.581C451.256 283.741 452.127 283.83 452.999 283.83ZM462.215 210.907C462.963 210.907 463.71 210.978 464.457 211.12C469.724 212.134 474.011 216.724 476.52 224.018C481.858 239.461 477.481 262.055 466.77 274.383C461.717 280.219 456.024 282.869 450.758 281.838C445.491 280.824 441.203 276.234 438.695 268.94C433.375 253.497 437.752 230.903 448.445 218.575C452.786 213.558 457.607 210.907 462.215 210.907Z" fill="white"/>
<path d="M453.889 279.934C459.013 279.934 464.297 277.07 468.994 271.644C480.079 258.888 484.598 235.511 479.082 219.535C476.342 211.618 471.592 206.619 465.667 205.481C459.742 204.324 453.48 207.189 447.982 213.522C436.898 226.278 432.379 249.655 437.894 265.63C440.634 273.547 445.384 278.546 451.309 279.685C452.145 279.845 453.017 279.934 453.889 279.934ZM463.105 207.011C463.852 207.011 464.6 207.082 465.347 207.224C470.613 208.238 474.901 212.828 477.41 220.122C482.747 235.564 478.371 258.158 467.66 270.487C462.607 276.323 456.914 278.973 451.647 277.942C446.381 276.927 442.093 272.337 439.584 265.043C434.264 249.601 438.641 227.007 449.334 214.678C453.675 209.661 458.497 207.011 463.105 207.011Z" fill="#181940"/>
<path d="M343.205 102.029L330.822 109.447L328.278 107.971L340.643 100.552L343.205 102.029Z" fill="#FFD5AD"/>
<path d="M343.205 102.029L349.166 142.413V200.57L336.8 207.989L332.53 200.57V147.715L330.822 109.447L343.205 102.029Z" fill="#FFD5AD"/>
<path d="M340.003 112.756L345.963 153.141V211.298L333.598 218.717L329.328 211.298V158.442L327.619 120.175L340.003 112.756Z" fill="#FFD5AD"/>
<path d="M336.48 209.217L350.055 201.069V142.413L344.024 101.477L343.205 100.997L329.915 108.967L331.641 147.768V200.82L336.48 209.217ZM348.276 200.072L337.12 206.762L333.42 200.339V147.715L331.729 109.928L342.511 103.47L348.276 142.538V200.072Z" fill="#181940"/>
<path d="M329.914 172.764V164.545L328.278 163.602V107.971L330.84 109.447L336.8 149.832V178.599C335.697 178.492 334.932 179.311 334.932 180.787C334.932 182.246 335.697 183.954 336.8 185.128V188.882C334.362 188.099 332.548 189.558 332.548 192.565C332.548 195.571 334.362 199.129 336.8 201.158V207.989L331.48 213.611L328.278 211.761V171.821L329.914 172.764Z" fill="#181940"/>
<path d="M327.388 164.1V107.473L340.643 99.5202L343.703 101.281L331.8 109.91L337.689 149.832V179.578L336.729 179.489C336.48 179.471 336.319 179.524 336.177 179.649C335.946 179.845 335.821 180.271 335.821 180.787C335.821 181.979 336.48 183.492 337.458 184.523L337.707 184.772V190.092L336.551 189.718C335.964 189.523 335.11 189.416 334.451 189.896C333.811 190.359 333.455 191.302 333.455 192.547C333.455 195.233 335.11 198.56 337.405 200.464L337.725 200.731V208.327L331.676 214.714L327.424 212.259V170.273L329.06 171.216V165.043L327.388 164.1ZM340.643 101.584L330.021 107.953L330.822 108.415L341.444 102.046L340.643 101.584ZM329.167 163.086L330.804 164.029V174.294L329.167 173.351V211.245L331.302 212.49L335.91 207.633V201.567C333.384 199.29 331.64 195.643 331.64 192.565C331.64 190.732 332.245 189.291 333.366 188.473C334.078 187.957 334.932 187.726 335.892 187.797V185.466C334.754 184.114 334.024 182.317 334.024 180.787C334.024 179.738 334.345 178.884 334.949 178.332C335.216 178.083 335.537 177.905 335.892 177.799V149.956L329.986 109.999L329.523 109.732L329.132 109.501V163.086H329.167Z" fill="#181940"/>
<path d="M273.23 141.737L260.865 149.174L258.303 147.697L270.686 140.261L273.23 141.737Z" fill="#FFD5AD"/>
<path d="M273.23 141.737L279.208 182.122V240.297L266.825 247.715L262.573 240.279V187.441L260.865 149.174L273.23 141.737Z" fill="#FFD5AD"/>
<path d="M270.027 151.006L276.005 191.391V249.548L262.573 247.716L259.37 249.548V196.692L257.662 158.425L270.027 151.006Z" fill="#FFD5AD"/>
<path d="M266.522 248.943L280.098 240.795V182.122L274.066 141.186L273.248 140.705L259.957 148.676L261.683 187.477V240.528L266.522 248.943ZM278.318 239.781L267.163 246.47L263.462 240.048V187.441L261.772 149.654L272.554 143.196L278.318 182.264V239.781Z" fill="#181940"/>
<path d="M259.957 212.472V204.253L258.32 203.31V147.697L260.882 149.174L266.842 189.558V218.326C265.739 218.219 264.974 219.037 264.974 220.514C264.974 221.973 265.739 223.68 266.842 224.855V228.608C264.405 227.826 262.59 229.285 262.59 232.291C262.59 235.298 264.405 238.856 266.842 240.884V247.715L261.523 253.337L258.32 251.487V211.53L259.957 212.472Z" fill="#181940"/>
<path d="M257.413 203.826V147.181L270.668 139.229L273.728 140.99L261.825 149.618L267.714 189.54V219.286L266.754 219.197C266.505 219.179 266.344 219.233 266.202 219.357C265.971 219.553 265.846 219.98 265.846 220.496C265.846 221.688 266.504 223.2 267.483 224.232L267.732 224.481V229.8L266.576 229.427C265.989 229.231 265.135 229.124 264.476 229.605C263.836 230.067 263.48 231.01 263.48 232.255C263.48 234.942 265.135 238.269 267.43 240.172L267.75 240.439V248.036L261.701 254.422L257.448 251.967V209.964L259.085 210.907V204.734L257.413 203.826ZM270.686 141.292L260.064 147.661L260.864 148.124L271.486 141.755L270.686 141.292ZM259.192 202.794L260.829 203.737V214.002L259.192 213.059V250.953L261.327 252.199L265.935 247.342V241.275C263.409 238.998 261.665 235.351 261.665 232.273C261.665 230.441 262.27 229 263.391 228.181C264.103 227.666 264.957 227.434 265.917 227.505V225.175C264.779 223.823 264.049 222.026 264.049 220.496C264.049 219.446 264.369 218.592 264.974 218.041C265.241 217.792 265.562 217.614 265.917 217.507V189.665L260.01 149.707L259.548 149.441L259.156 149.209V202.794H259.192Z" fill="#181940"/>
<path d="M263.995 235.867V300.18C263.995 317.365 267.038 334.409 272.998 350.527C278.941 366.645 282.001 383.689 282.001 400.874V455.242L368.505 405.322V350.954C368.505 333.768 365.462 316.725 359.502 300.607C353.56 284.489 350.5 267.445 350.5 250.26V185.947L263.995 235.867Z" fill="#FFD5AD"/>
<path d="M281.094 456.79L369.377 405.838V350.954C369.377 333.608 366.335 316.565 360.321 300.287C354.396 284.222 351.372 267.374 351.372 250.242V184.381L263.088 235.333V300.162C263.088 317.508 266.131 334.551 272.144 350.829C278.087 366.912 281.094 383.742 281.094 400.874V456.79ZM367.598 404.806L282.873 453.712V400.892C282.873 383.546 279.83 366.503 273.817 350.225C267.892 334.142 264.867 317.312 264.867 300.18V236.383L349.592 187.477V250.242C349.592 267.588 352.635 284.631 358.648 300.909C364.573 316.974 367.598 333.822 367.598 350.954V404.806Z" fill="#181940"/>
<path d="M276.059 253.515C280.969 250.669 284.954 243.784 284.954 238.109C284.954 237.077 284.812 236.169 284.581 235.387L328.883 209.964C328.473 211.387 328.242 212.81 328.242 214.18C328.242 219.855 332.227 222.15 337.138 219.322C338.49 218.539 339.753 217.454 340.91 216.173V255.757C340.91 272.533 343.881 289.185 349.699 304.948C355.517 320.692 358.488 337.344 358.488 354.138V386.766C358.186 386.909 357.901 387.051 357.599 387.229C352.688 390.075 348.703 396.96 348.703 402.635C348.703 403.596 348.827 404.45 349.041 405.197L304.116 430.976C304.828 429.09 305.237 427.151 305.237 425.336C305.237 419.661 301.252 417.366 296.341 420.195C294.615 421.191 292.996 422.703 291.626 424.482V392.495C291.626 375.718 288.655 359.066 282.837 343.304C277.019 327.559 274.048 310.907 274.048 294.113V254.405C274.671 254.209 275.347 253.924 276.059 253.515Z" fill="#FFD5AD"/>
<path d="M273.07 260.436C277.98 257.589 281.966 250.704 281.966 245.029C281.966 243.997 281.823 243.09 281.592 242.307L325.894 216.884C325.485 218.308 325.253 219.731 325.253 221.101C325.253 226.776 329.239 229.071 334.149 226.242C335.501 225.459 336.765 224.374 337.921 223.093V262.677C337.921 279.454 340.892 296.106 346.71 311.868C352.528 327.613 355.5 344.265 355.5 361.059V393.687C355.197 393.829 354.912 393.971 354.61 394.149C349.699 396.978 345.714 403.881 345.714 409.556C345.714 410.517 345.839 411.37 346.052 412.118L301.128 437.896C301.839 436.01 302.248 434.071 302.248 432.257C302.248 426.581 298.263 424.286 293.353 427.115C291.627 428.111 290.008 429.624 288.638 431.403V399.415C288.638 382.639 285.666 365.987 279.848 350.224C274.031 334.48 271.059 317.828 271.059 301.034V261.325C271.682 261.129 272.358 260.845 273.07 260.436Z" fill="#FFD5AD"/>
<path d="M302.355 432.968L350.037 405.606L349.841 404.93C349.646 404.219 349.539 403.436 349.539 402.6C349.539 397.209 353.329 390.645 357.99 387.958C358.275 387.798 358.542 387.656 358.826 387.531L359.342 387.3V354.103C359.342 337.166 356.371 320.514 350.5 304.61C344.7 288.901 341.764 272.462 341.764 255.739V213.824L340.216 215.568C339.077 216.831 337.885 217.827 336.675 218.539C334.594 219.749 332.672 219.962 331.267 219.162C329.879 218.361 329.114 216.582 329.114 214.162C329.114 212.935 329.327 211.601 329.719 210.195L330.324 208.078L283.495 234.942L283.709 235.618C283.94 236.347 284.047 237.183 284.047 238.091C284.047 243.481 280.257 250.046 275.596 252.732C274.973 253.088 274.368 253.355 273.728 253.551L273.105 253.746V294.113C273.105 311.05 276.076 327.702 281.948 343.606C287.748 359.298 290.683 375.754 290.683 392.477V427.08L292.285 424.998C293.637 423.237 295.185 421.831 296.733 420.924C298.814 419.714 300.736 419.501 302.141 420.301C303.529 421.102 304.294 422.881 304.294 425.283C304.294 426.92 303.921 428.77 303.227 430.602L302.355 432.968ZM347.973 404.753L305.593 429.072C305.913 427.773 306.073 426.51 306.073 425.336C306.073 422.258 304.988 419.946 303.031 418.807C301.056 417.668 298.512 417.9 295.843 419.43C294.687 420.106 293.53 421.013 292.463 422.116V392.513C292.463 375.558 289.491 358.924 283.62 343.019C277.82 327.31 274.884 310.872 274.884 294.149V255.081C275.436 254.867 275.969 254.618 276.485 254.316C281.645 251.345 285.826 244.086 285.826 238.126C285.826 237.308 285.755 236.543 285.595 235.831L327.53 211.761C327.388 212.597 327.317 213.415 327.317 214.18C327.317 217.258 328.402 219.571 330.359 220.709C332.334 221.848 334.878 221.617 337.547 220.087C338.383 219.606 339.184 219.019 339.985 218.308V255.739C339.985 272.676 342.956 289.327 348.827 305.232C354.627 320.923 357.563 337.38 357.563 354.103V386.179C357.421 386.25 357.261 386.339 357.118 386.428C351.959 389.399 347.778 396.658 347.778 402.618C347.778 403.365 347.849 404.076 347.973 404.753Z" fill="#181940"/>
<path d="M310.885 357.46C302.125 355.763 297.407 342.086 300.347 326.912C303.287 311.738 312.771 300.813 321.531 302.509C330.291 304.206 335.009 317.883 332.069 333.057C329.129 348.231 319.645 359.157 310.885 357.46Z" fill="#FFD5AD"/>
<path d="M314.169 353.338C318.119 353.338 322.175 351.132 325.787 346.987C334.238 337.255 337.69 319.447 333.473 307.26C331.374 301.176 327.708 297.351 323.136 296.461C318.563 295.572 313.742 297.76 309.525 302.617C301.074 312.348 297.622 330.157 301.839 342.343C303.938 348.428 307.604 352.27 312.176 353.142C312.834 353.267 313.511 353.338 314.169 353.338ZM321.161 298.045C321.713 298.045 322.264 298.098 322.816 298.205C326.73 298.97 329.915 302.386 331.801 307.847C335.822 319.482 332.512 336.526 324.453 345.812C320.663 350.171 316.428 352.146 312.514 351.399C308.6 350.634 305.415 347.218 303.529 341.756C299.508 330.121 302.818 313.078 310.877 303.773C314.133 300.037 317.727 298.045 321.161 298.045Z" fill="#181940"/>
<path d="M312.176 366.04C317.3 366.04 322.584 363.176 327.281 357.75C338.366 344.994 342.885 321.617 337.369 305.642C334.629 297.725 329.879 292.726 323.954 291.587C318.03 290.431 311.767 293.295 306.269 299.628C295.185 312.384 290.666 335.761 296.181 351.737C298.921 359.654 303.672 364.653 309.596 365.791C310.45 365.951 311.304 366.04 312.176 366.04ZM321.392 293.117C322.14 293.117 322.887 293.188 323.634 293.331C328.9 294.345 333.188 298.935 335.697 306.229C341.034 321.671 336.658 344.265 325.947 356.594C320.894 362.429 315.201 365.08 309.934 364.048C304.668 363.034 300.38 358.444 297.871 351.15C292.552 335.708 296.928 313.114 307.621 300.785C311.963 295.768 316.784 293.117 321.392 293.117Z" fill="white"/>
<path d="M313.066 362.144C318.19 362.144 323.474 359.28 328.171 353.854C339.255 341.098 343.774 317.721 338.259 301.745C335.519 293.829 330.769 288.829 324.844 287.691C318.919 286.534 312.656 289.399 307.159 295.732C296.074 308.488 291.555 331.865 297.071 347.841C299.811 355.757 304.561 360.757 310.486 361.895C311.34 362.073 312.194 362.144 313.066 362.144ZM322.282 289.221C323.029 289.221 323.776 289.292 324.524 289.434C329.79 290.448 334.078 295.038 336.587 302.332C341.924 317.775 337.547 340.369 326.837 352.697C321.784 358.533 316.09 361.184 310.824 360.152C305.558 359.138 301.27 354.548 298.761 347.254C293.441 331.811 297.818 309.217 308.511 296.889C312.852 291.889 317.674 289.221 322.282 289.221Z" fill="#181940"/>
<path d="M202.382 184.239L190.017 191.657L187.455 190.181L199.82 182.762L202.382 184.239Z" fill="#FFD5AD"/>
<path d="M202.382 184.239L208.343 224.623V282.781L195.977 290.199L191.707 282.781V229.925L190.017 191.657L202.382 184.239Z" fill="#FFD5AD"/>
<path d="M199.18 194.967L205.14 235.351V293.508L192.775 300.945L188.505 293.508V240.67L186.815 202.385L199.18 194.967Z" fill="#FFD5AD"/>
<path d="M195.657 291.427L209.232 283.279V224.606L203.201 183.67L202.383 183.189L189.092 191.159L190.818 229.961V283.012L195.657 291.427ZM207.453 282.283L196.298 288.972L192.597 282.549V229.943L190.907 192.156L201.689 185.698L207.453 224.766V282.283Z" fill="#181940"/>
<path d="M189.092 254.974V246.755L187.455 245.812V190.181L190.017 191.658L195.978 232.042V260.809C194.874 260.703 194.109 261.521 194.109 262.998C194.109 264.456 194.874 266.164 195.978 267.339V271.092C193.54 270.31 191.725 271.768 191.725 274.775C191.725 277.782 193.54 281.34 195.978 283.368V290.199L190.658 295.821L187.455 293.971V254.013L189.092 254.974Z" fill="#181940"/>
<path d="M186.566 246.328V189.683L199.821 181.73L202.881 183.492L190.978 192.12L196.867 232.042V261.788L195.906 261.699C195.657 261.681 195.497 261.734 195.355 261.859C195.124 262.055 194.999 262.482 194.999 262.998C194.999 264.19 195.657 265.702 196.636 266.734L196.885 266.983V272.302L195.729 271.928C195.141 271.733 194.287 271.626 193.629 272.106C192.989 272.569 192.633 273.512 192.633 274.757C192.633 277.444 194.287 280.77 196.583 282.674L196.903 282.941V290.537L190.854 296.924L186.601 294.469V252.466L188.238 253.409V247.235L186.566 246.328ZM199.838 183.794L189.217 190.163L190.017 190.626L200.639 184.257L199.838 183.794ZM188.345 245.296L189.982 246.239V256.504L188.345 255.561V293.455L190.48 294.7L195.088 289.844V283.777C192.562 281.5 190.818 277.853 190.818 274.775C190.818 272.943 191.423 271.501 192.544 270.683C193.255 270.167 194.109 269.936 195.07 270.007V267.677C193.932 266.324 193.202 264.528 193.202 262.998C193.202 261.948 193.522 261.094 194.127 260.542C194.394 260.293 194.714 260.116 195.07 260.009V232.167L189.163 192.209L188.701 191.942L188.309 191.711V245.296H188.345Z" fill="#181940"/>
<path d="M132.425 223.965L120.042 231.384L117.497 229.907L129.863 222.488L132.425 223.965Z" fill="#FFD5AD"/>
<path d="M132.425 223.965L138.385 264.332V322.507L126.02 329.925L121.75 322.507V269.651L120.042 231.384L132.425 223.965Z" fill="#FFD5AD"/>
<path d="M129.222 233.216L135.183 273.601V331.758L121.75 329.926L118.547 331.758V278.902L116.839 240.635L129.222 233.216Z" fill="#FFD5AD"/>
<path d="M125.7 331.153L139.275 323.005V264.332L133.243 223.396L132.425 222.915L119.134 230.886L120.86 269.687V322.738L125.7 331.153ZM137.496 321.991L126.34 328.68L122.639 322.258V269.651L120.949 231.864L131.731 225.406L137.496 264.474V321.991Z" fill="#181940"/>
<path d="M119.134 294.7V286.481L117.497 285.538V229.907L120.059 231.384L126.02 271.768V300.536C124.916 300.429 124.151 301.247 124.151 302.724C124.151 304.2 124.916 305.891 126.02 307.065V310.819C123.582 310.036 121.767 311.495 121.767 314.501C121.767 317.508 123.582 321.066 126.02 323.094V329.926L120.7 335.547L117.497 333.697V293.74L119.134 294.7Z" fill="#181940"/>
<path d="M116.608 286.036V229.391L129.863 221.439L132.923 223.2L121.02 231.828L126.909 271.75V301.496L125.948 301.407C125.699 301.39 125.539 301.443 125.397 301.567C125.166 301.763 125.041 302.19 125.041 302.706C125.041 303.898 125.699 305.41 126.678 306.442L126.927 306.691V312.01L125.771 311.637C125.183 311.441 124.329 311.334 123.671 311.815C123.031 312.277 122.675 313.22 122.675 314.466C122.675 317.152 124.329 320.479 126.625 322.382L126.945 322.649V330.246L120.896 336.633L116.643 334.177V292.174L118.28 293.117V286.944L116.608 286.036ZM129.863 223.52L119.241 229.889L120.042 230.352L130.663 223.983L129.863 223.52ZM118.387 285.022L120.024 285.965V296.23L118.387 295.287V333.181L120.522 334.427L125.13 329.57V323.503C122.604 321.226 120.86 317.579 120.86 314.501C120.86 312.669 121.465 311.228 122.586 310.409C123.297 309.893 124.151 309.662 125.112 309.733V307.403C123.974 306.051 123.244 304.254 123.244 302.724C123.244 301.674 123.564 300.82 124.169 300.269C124.436 300.02 124.756 299.842 125.112 299.735V271.893L119.205 231.935L118.743 231.668L118.351 231.437V285.022H118.387Z" fill="#181940"/>
<path d="M123.173 318.095V382.408C123.173 399.593 126.216 416.637 132.176 432.755C138.118 448.873 141.179 465.916 141.179 483.102V537.47L227.683 487.55V433.182C227.683 415.996 224.64 398.953 218.68 382.835C212.737 366.716 209.677 349.673 209.677 332.487V268.175L123.173 318.095Z" fill="#FFD5AD"/>
<path d="M140.271 539L228.554 488.048V433.164C228.554 415.818 225.512 398.775 219.498 382.497C213.556 366.432 210.549 349.584 210.549 332.452V266.591L122.266 317.543V382.372C122.266 399.718 125.308 416.761 131.322 433.04C137.246 449.122 140.271 465.952 140.271 483.084V539ZM226.775 487.034L142.05 535.94V483.12C142.05 465.774 139.008 448.731 132.994 432.452C127.069 416.37 124.045 399.54 124.045 382.408V318.611L208.77 269.705V332.47C208.77 349.815 211.812 366.859 217.826 383.137C223.75 399.202 226.775 416.05 226.775 433.182V487.034Z" fill="#181940"/>
<path d="M135.235 335.725C140.146 332.897 144.131 325.994 144.131 320.319C144.131 319.287 143.989 318.38 143.758 317.597L188.059 292.174C187.65 293.597 187.419 295.021 187.419 296.39C187.419 302.066 191.404 304.361 196.315 301.532C197.667 300.749 198.93 299.664 200.087 298.383V337.967C200.087 354.743 203.058 371.395 208.876 387.158C214.694 402.902 217.665 419.554 217.665 436.349V468.976C217.363 469.119 217.078 469.261 216.775 469.439C211.865 472.285 207.88 479.17 207.88 484.846C207.88 485.806 208.004 486.66 208.218 487.407L163.293 513.186C164.005 511.3 164.414 509.361 164.414 507.546C164.414 501.871 160.429 499.576 155.518 502.405C153.792 503.401 152.173 504.913 150.803 506.692V474.705C150.803 457.928 147.832 441.277 142.014 425.514C136.196 409.769 133.225 393.118 133.225 376.323V336.615C133.848 336.437 134.524 336.134 135.235 335.725Z" fill="#FFD5AD"/>
<path d="M132.246 342.646C137.157 339.799 141.142 332.914 141.142 327.239C141.142 326.207 141 325.3 140.769 324.517L185.071 299.094C184.661 300.518 184.43 301.941 184.43 303.311C184.43 308.986 188.415 311.281 193.326 308.452C194.678 307.67 195.941 306.584 197.098 305.303V344.887C197.098 361.664 200.069 378.316 205.887 394.078C211.705 409.823 214.676 426.475 214.676 443.269V475.897C214.374 476.039 214.089 476.182 213.787 476.359C208.876 479.206 204.891 486.091 204.891 491.766C204.891 492.727 205.015 493.581 205.229 494.328L160.304 520.106C161.016 518.221 161.425 516.281 161.425 514.467C161.425 508.792 157.44 506.497 152.529 509.325C150.803 510.322 149.184 511.834 147.814 513.613V481.625C147.814 464.849 144.843 448.197 139.025 432.435C133.207 416.69 130.236 400.038 130.236 383.244V343.535C130.859 343.34 131.535 343.055 132.246 342.646Z" fill="#FFD5AD"/>
<path d="M161.55 515.196L209.232 487.834L209.036 487.158C208.841 486.447 208.734 485.664 208.734 484.828C208.734 479.437 212.523 472.873 217.185 470.186C217.47 470.026 217.736 469.884 218.021 469.759L218.537 469.528V436.331C218.537 419.394 215.566 402.742 209.695 386.838C203.894 371.128 200.959 354.69 200.959 337.967V296.052L199.411 297.796C198.272 299.059 197.08 300.055 195.87 300.767C193.789 301.977 191.867 302.19 190.461 301.39C189.074 300.589 188.309 298.81 188.309 296.39C188.309 295.163 188.522 293.829 188.914 292.423L189.519 290.306L142.69 317.17L142.904 317.846C143.135 318.575 143.242 319.411 143.242 320.319C143.242 325.709 139.452 332.274 134.791 334.96C134.168 335.316 133.563 335.583 132.922 335.779L132.3 335.974V376.341C132.3 393.278 135.271 409.93 141.142 425.834C146.942 441.526 149.878 457.982 149.878 474.705V509.308L151.479 507.226C152.832 505.465 154.38 504.059 155.927 503.152C158.009 501.942 159.931 501.729 161.336 502.529C162.724 503.33 163.489 505.109 163.489 507.511C163.489 509.147 163.115 510.998 162.421 512.83L161.55 515.196ZM207.168 486.963L164.788 511.282C165.108 509.984 165.268 508.721 165.268 507.546C165.268 504.469 164.183 502.156 162.226 501.017C160.251 499.879 157.707 500.11 155.038 501.64C153.881 502.316 152.725 503.223 151.657 504.326V474.723C151.657 457.768 148.686 441.134 142.815 425.23C137.015 409.52 134.079 393.082 134.079 376.359V337.291C134.631 337.077 135.164 336.828 135.68 336.526C140.84 333.555 145.021 326.296 145.021 320.336C145.021 319.518 144.95 318.753 144.79 318.041L186.725 293.971C186.583 294.807 186.512 295.625 186.512 296.39C186.512 299.468 187.597 301.781 189.554 302.92C191.529 304.058 194.073 303.827 196.742 302.297C197.578 301.816 198.379 301.229 199.18 300.518V337.949C199.18 354.886 202.151 371.538 208.022 387.442C213.822 403.134 216.758 419.59 216.758 436.313V468.389C216.616 468.461 216.455 468.55 216.313 468.638C211.153 471.609 206.972 478.868 206.972 484.828C206.955 485.575 207.026 486.287 207.168 486.963Z" fill="#181940"/>
<path d="M170.052 439.666C161.292 437.969 156.574 424.292 159.514 409.118C162.453 393.944 171.938 383.019 180.698 384.716C189.457 386.413 194.175 400.089 191.236 415.263C188.296 430.437 178.811 441.363 170.052 439.666Z" fill="#FFD5AD"/>
<path d="M173.346 435.548C177.295 435.548 181.352 433.342 184.964 429.197C193.415 419.465 196.867 401.657 192.65 389.47C190.55 383.386 186.885 379.561 182.313 378.672C177.74 377.782 172.919 379.97 168.702 384.827C160.251 394.558 156.799 412.367 161.016 424.553C163.115 430.638 166.781 434.481 171.353 435.352C172.011 435.477 172.687 435.548 173.346 435.548ZM180.338 380.255C180.889 380.255 181.441 380.308 181.993 380.415C185.907 381.18 189.091 384.596 190.977 390.057C194.998 401.692 191.689 418.736 183.629 428.023C179.84 432.381 175.605 434.356 171.691 433.609C167.777 432.844 164.592 429.428 162.706 423.966C158.685 412.331 161.994 395.288 170.054 385.983C173.31 382.247 176.904 380.255 180.338 380.255Z" fill="#181940"/>
<path d="M171.353 448.25C176.477 448.25 181.762 445.386 186.459 439.96C197.543 427.204 202.062 403.828 196.547 387.852C193.807 379.935 189.056 374.936 183.131 373.797C177.207 372.641 170.944 375.505 165.446 381.838C154.362 394.594 149.843 417.971 155.358 433.947C158.098 441.864 162.849 446.863 168.773 448.001C169.627 448.179 170.481 448.25 171.353 448.25ZM180.569 375.327C181.317 375.327 182.064 375.398 182.811 375.541C188.078 376.555 192.365 381.145 194.874 388.439C200.212 403.881 195.835 426.475 185.124 438.804C180.071 444.639 174.378 447.29 169.111 446.258C163.845 445.244 159.557 440.654 157.049 433.36C151.729 417.918 156.106 395.324 166.799 382.995C171.14 377.996 175.961 375.327 180.569 375.327Z" fill="white"/>
<path d="M172.243 444.354C177.367 444.354 182.651 441.49 187.348 436.064C198.433 423.308 202.952 399.931 197.436 383.955C194.696 376.039 189.946 371.039 184.021 369.901C178.096 368.744 171.834 371.609 166.336 377.942C155.252 390.698 150.732 414.075 156.248 430.051C158.988 437.967 163.738 442.967 169.663 444.105C170.517 444.283 171.371 444.354 172.243 444.354ZM181.459 371.431C182.206 371.431 182.954 371.502 183.701 371.644C188.967 372.658 193.255 377.248 195.764 384.542C201.101 399.985 196.725 422.579 186.014 434.908C180.961 440.743 175.267 443.394 170.001 442.362C164.735 441.348 160.447 436.758 157.938 429.464C152.618 414.021 156.995 391.427 167.688 379.099C172.029 374.099 176.851 371.431 181.459 371.431Z" fill="#181940"/>
<path d="M499.934 29.0697L487.551 36.4883L490.113 37.9649L502.478 30.5463L499.934 29.0697Z" fill="#FFD5AD"/>
<path d="M490.113 141.755L502.478 134.336V30.5464L490.113 37.9651V141.755Z" fill="#FFD5AD"/>
<path d="M481.59 109.038V105.196C482.551 105.16 483.21 104.377 483.21 103.025C483.21 101.673 482.551 100.125 481.59 98.9866V69.988L487.551 36.4884L490.113 37.965V141.755L486.91 139.905L481.59 128.145V121.314C484.028 122.097 485.861 120.638 485.861 117.631C485.861 114.624 484.028 111.066 481.59 109.038Z" fill="#181940"/>
<path d="M482.32 103.025C482.32 101.922 481.768 100.605 480.897 99.5558L480.683 99.3068L480.701 69.8457L486.75 35.9369L499.916 28.0379L503.368 30.0304V134.834L490.113 142.787L486.216 140.545L480.772 128.519L480.701 120.104L481.857 120.478C482.444 120.673 483.281 120.78 483.957 120.3C484.597 119.837 484.953 118.894 484.953 117.649C484.953 114.962 483.298 111.636 481.003 109.732L480.683 109.465V104.359L481.537 104.324C482.231 104.27 482.32 103.488 482.32 103.025ZM499.934 30.1016L489.312 36.4706L489.721 36.7019L490.095 36.9154L500.717 30.5464L499.934 30.1016ZM501.588 133.838V32.1119L491.002 38.4632V140.189L501.588 133.838ZM482.48 98.6663C483.494 100.001 484.099 101.602 484.099 103.025C484.099 104.591 483.37 105.516 482.48 105.889V108.629C485.006 110.906 486.75 114.553 486.75 117.631C486.75 119.463 486.145 120.904 485.024 121.723C484.313 122.239 483.441 122.47 482.498 122.399V127.967L487.622 139.3L489.223 140.225V38.4809L488.511 38.0718L488.209 37.8939L482.48 69.988V98.6663Z" fill="#181940"/>
<path d="M470.257 108.006L479.509 102.58C480.772 101.833 481.199 100.196 480.452 98.9331C479.705 97.67 478.068 97.243 476.805 97.9902L470.204 101.869L470.257 108.006Z" fill="#FFD5AD"/>
<path d="M429.959 68.7959L417.594 76.2146L420.156 77.6912L432.521 70.2548L429.959 68.7959Z" fill="#FFD5AD"/>
<path d="M420.156 181.481L432.521 174.063V70.2549L420.156 77.6913V181.481Z" fill="#FFD5AD"/>
<path d="M411.633 148.747V144.904C412.594 144.868 413.253 144.086 413.253 142.733C413.253 141.381 412.594 139.834 411.633 138.695V109.696L417.594 76.1969L420.156 77.6735V181.463L416.953 179.613L411.633 167.854V161.022C414.071 161.805 415.886 160.346 415.886 157.34C415.886 154.333 414.071 150.793 411.633 148.747Z" fill="#181940"/>
<path d="M412.363 142.733C412.363 141.63 411.811 140.314 410.939 139.264L410.726 139.015L410.744 109.554L416.775 75.6632L429.941 67.7642L433.393 69.7567V174.561L420.138 182.513L416.241 180.272L410.797 168.245L410.726 159.83L411.882 160.204C412.469 160.399 413.306 160.506 413.982 160.026C414.622 159.563 414.978 158.62 414.978 157.375C414.978 154.689 413.323 151.362 411.028 149.458L410.708 149.191V144.086L411.562 144.05C412.256 143.997 412.363 143.196 412.363 142.733ZM429.977 69.8279L419.355 76.1969L419.764 76.4282L420.138 76.6416L430.759 70.2726L429.977 69.8279ZM431.631 173.547V71.8382L421.045 78.1894V179.916L431.631 173.547ZM412.523 138.375C413.537 139.709 414.142 141.31 414.142 142.733C414.142 144.299 413.412 145.224 412.523 145.598V148.338C415.049 150.615 416.793 154.262 416.793 157.34C416.793 159.172 416.188 160.613 415.067 161.431C414.355 161.947 413.484 162.179 412.541 162.107V167.676L417.665 179.008L419.284 179.934V78.2072L418.572 77.798L418.27 77.6201L412.541 109.714V138.375H412.523Z" fill="#181940"/>
<path d="M400.442 148.391L409.694 142.965C410.957 142.218 411.384 140.581 410.637 139.318C409.889 138.055 408.252 137.628 406.989 138.375L400.388 142.253L400.442 148.391Z" fill="#FFD5AD"/>
<path d="M359.112 111.28L346.728 118.698L349.29 120.175L361.656 112.756L359.112 111.28Z" fill="#FFD5AD"/>
<path d="M349.29 223.965L361.656 216.546V112.756L349.29 120.175V223.965Z" fill="#FFD5AD"/>
<path d="M340.768 191.248V187.406C341.729 187.37 342.387 186.587 342.387 185.235C342.387 183.883 341.729 182.335 340.768 181.197V152.198L346.728 118.698L349.291 120.175V223.965L346.088 222.115L340.768 210.355V203.524C343.206 204.307 345.038 202.848 345.038 199.841C345.038 196.834 343.206 193.276 340.768 191.248Z" fill="#181940"/>
<path d="M341.497 185.235C341.497 184.132 340.946 182.816 340.074 181.766L339.861 181.517L339.878 152.056L345.91 118.165L359.076 110.266L362.527 112.258V217.062L349.272 225.015L345.376 222.773L339.932 210.747L339.861 202.332L341.017 202.705C341.604 202.901 342.44 203.008 343.116 202.527C343.757 202.065 344.113 201.122 344.113 199.877C344.113 197.19 342.458 193.864 340.163 191.96L339.843 191.693V186.587L340.697 186.552C341.408 186.48 341.497 185.698 341.497 185.235ZM359.111 112.312L348.49 118.681L348.899 118.912L349.272 119.125L359.894 112.756L359.111 112.312ZM360.766 216.048V114.322L350.18 120.673V222.4L360.766 216.048ZM341.657 180.876C342.672 182.211 343.277 183.812 343.277 185.235C343.277 186.801 342.547 187.726 341.657 188.099V190.839C344.184 193.116 345.928 196.763 345.928 199.841C345.928 201.674 345.323 203.115 344.202 203.933C343.49 204.449 342.618 204.68 341.675 204.609V210.177L346.799 221.51L348.418 222.435V120.691L347.707 120.282L347.404 120.104L341.675 152.198V180.876H341.657Z" fill="#181940"/>
<path d="M329.31 190.341L338.562 184.915C339.825 184.168 340.252 182.531 339.505 181.268C338.757 180.005 337.121 179.578 335.857 180.325L329.257 184.203L329.31 190.341Z" fill="#FFD5AD"/>
<path d="M289.136 151.006L276.771 158.425L279.333 159.901L291.698 152.483L289.136 151.006Z" fill="#FFD5AD"/>
<path d="M279.333 263.691L291.698 256.273V152.483L279.333 159.901V263.691Z" fill="#FFD5AD"/>
<path d="M270.81 230.975V227.132C271.771 227.096 272.429 226.314 272.429 224.961C272.429 223.609 271.771 222.062 270.81 220.923V191.942L276.77 158.443L279.333 159.919V263.709L276.13 261.859L270.81 250.099V243.268C273.248 244.051 275.08 242.592 275.08 239.585C275.08 236.579 273.248 233.003 270.81 230.975Z" fill="#181940"/>
<path d="M271.54 224.944C271.54 223.841 270.988 222.524 270.117 221.474L269.903 221.225L269.921 191.764L275.952 157.873L289.118 149.974L292.57 151.967V256.771L279.315 264.723L275.419 262.482L269.974 250.455L269.903 242.04L271.06 242.414C271.647 242.61 272.483 242.716 273.159 242.236C273.799 241.773 274.155 240.831 274.155 239.585C274.155 236.899 272.501 233.572 270.205 231.668L269.885 231.402V226.296L270.739 226.26C271.433 226.207 271.54 225.424 271.54 224.944ZM289.154 152.038L278.532 158.407L278.941 158.638L279.315 158.852L289.954 152.483L289.154 152.038ZM290.808 255.775V154.048L280.222 160.4V262.126L290.808 255.775ZM271.7 220.603C272.714 221.937 273.319 223.538 273.319 224.961C273.319 226.527 272.59 227.452 271.7 227.826V230.565C274.226 232.843 275.97 236.49 275.97 239.567C275.97 241.4 275.365 242.841 274.244 243.659C273.533 244.175 272.661 244.406 271.718 244.335V249.904L276.842 261.236L278.461 262.161V160.417L277.749 160.008L277.447 159.83L271.718 191.924V220.603H271.7Z" fill="#181940"/>
<path d="M259.619 230.601L268.871 225.175C270.134 224.428 270.561 222.791 269.814 221.528C269.067 220.265 267.43 219.838 266.166 220.585L259.566 224.463L259.619 230.601Z" fill="#FFD5AD"/>
<path d="M218.289 193.49L205.923 200.908L208.467 202.385L220.851 194.966L218.289 193.49Z" fill="#FFD5AD"/>
<path d="M208.467 306.193L220.851 298.756V194.966L208.467 202.385V306.193Z" fill="#FFD5AD"/>
<path d="M199.945 273.458V269.616C200.906 269.58 201.564 268.797 201.564 267.445C201.564 266.093 200.906 264.545 199.945 263.407V234.426L205.905 200.926L208.467 202.403V306.193L205.265 304.343L199.945 292.583V285.752C202.382 286.534 204.215 285.076 204.215 282.069C204.215 279.062 202.382 275.504 199.945 273.458Z" fill="#181940"/>
<path d="M200.692 267.445C200.692 266.342 200.141 265.026 199.269 263.976L199.055 263.727L199.073 234.266L205.105 200.375L218.271 192.476L221.722 194.468V299.272L208.467 307.225L204.571 304.983L199.126 292.957L199.055 284.542L200.212 284.915C200.799 285.111 201.635 285.218 202.311 284.738C202.952 284.275 203.308 283.332 203.308 282.087C203.308 279.4 201.653 276.074 199.358 274.17L199.037 273.903V268.797L199.891 268.762C200.585 268.69 200.692 267.908 200.692 267.445ZM218.288 194.522L207.667 200.891L208.076 201.122L208.449 201.335L219.071 194.966L218.288 194.522ZM219.961 298.258V196.532L209.375 202.883V304.61L219.961 298.258ZM200.834 263.086C201.849 264.421 202.454 266.022 202.454 267.445C202.454 269.011 201.724 269.936 200.834 270.309V273.049C203.361 275.326 205.105 278.973 205.105 282.051C205.105 283.884 204.5 285.325 203.379 286.143C202.667 286.659 201.795 286.89 200.852 286.819V292.387L205.976 303.72L207.595 304.645V202.901L206.884 202.492L206.581 202.314L200.852 234.408V263.086H200.834Z" fill="#181940"/>
<path d="M188.042 273.369L197.294 267.943C198.557 267.196 198.984 265.559 198.237 264.296C197.49 263.033 195.853 262.606 194.59 263.353L187.989 267.232L188.042 273.369Z" fill="#FFD5AD"/>
<path d="M148.331 233.216L135.948 240.635L138.51 242.111L150.875 234.693L148.331 233.216Z" fill="#FFD5AD"/>
<path d="M138.51 345.902L150.875 338.483V234.693L138.51 242.112V345.902Z" fill="#FFD5AD"/>
<path d="M129.987 313.185V309.342C130.948 309.306 131.607 308.524 131.607 307.171C131.607 305.819 130.948 304.272 129.987 303.133V274.152L135.948 240.653L138.51 242.129V345.919L135.307 344.069L129.987 332.309V325.478C132.425 326.261 134.258 324.802 134.258 321.795C134.258 318.789 132.425 315.213 129.987 313.185Z" fill="#181940"/>
<path d="M130.717 307.172C130.717 306.069 130.165 304.752 129.294 303.702L129.08 303.453L129.116 273.974L135.147 240.083L148.313 232.184L151.765 234.177V338.981L138.51 346.933L134.613 344.692L129.169 332.665L129.098 324.25L130.254 324.624C130.842 324.82 131.678 324.926 132.354 324.446C132.994 323.984 133.35 323.041 133.35 321.795C133.35 319.109 131.696 315.782 129.4 313.879L129.08 313.612V308.506L129.934 308.47C130.628 308.417 130.717 307.634 130.717 307.172ZM148.331 234.248L137.709 240.617L138.118 240.848L138.492 241.062L149.114 234.693L148.331 234.248ZM149.985 337.985V236.258L139.399 242.61V344.336L149.985 337.985ZM130.877 302.813C131.891 304.147 132.496 305.748 132.496 307.172C132.496 308.737 131.767 309.662 130.877 310.036V312.776C133.404 315.053 135.147 318.7 135.147 321.778C135.147 323.61 134.542 325.051 133.421 325.869C132.71 326.385 131.838 326.617 130.895 326.545V332.114L136.019 343.446L137.638 344.372V242.627L136.926 242.218L136.624 242.04L130.895 274.134V302.813H130.877Z" fill="#181940"/>
<path d="M117.907 310.765L127.158 305.339C128.422 304.592 128.849 302.955 128.101 301.692C127.354 300.429 125.717 300.002 124.454 300.749L117.853 304.627L117.907 310.765Z" fill="#FFD5AD"/>
</g>
<defs>
<clipPath id="clip0_3_965">
<rect width="628" height="539" fill="white" transform="matrix(-1 0 0 1 628 0)"/>
</clipPath>
</defs>
</svg>
