<svg width="252" height="251" viewBox="0 0 252 251" fill="none" xmlns="http://www.w3.org/2000/svg">
<g clip-path="url(#clip0_3_1579)">
<path d="M213.335 236.509H28.8233C14.4908 236.509 2.91455 224.932 2.91455 210.598V28.8261C2.91455 14.4922 14.4908 2.91486 28.8233 2.91486H213.256C227.588 2.91486 239.165 14.4922 239.165 28.8261V210.598C239.243 224.932 227.588 236.509 213.335 236.509Z" fill="#181940"/>
<path d="M226.091 251H41.6588C27.3262 251 15.75 239.422 15.75 225.089V43.3952C15.75 29.0613 27.3262 17.4839 41.6588 17.4839H226.091C240.424 17.4839 252 29.0613 252 43.3952V225.167C252 239.422 240.424 251 226.091 251Z" fill="#FFD5AD"/>
<path d="M213.334 239.423H28.8225C12.915 239.423 0 226.506 0 210.597V28.8252C0 12.9162 12.915 0 28.8225 0H213.255C229.163 0 242.077 12.9162 242.077 28.8252V210.597C242.156 226.506 229.241 239.423 213.334 239.423ZM28.8225 5.90681C16.1438 5.90681 5.90625 16.224 5.90625 28.8252V210.597C5.90625 223.277 16.2225 233.516 28.8225 233.516H213.255C225.934 233.516 236.171 223.199 236.171 210.597V28.8252C236.171 16.1453 225.855 5.90681 213.255 5.90681H28.8225Z" fill="#181940"/>
<path d="M143.875 119.159L207.505 104.825C202.544 82.7728 186.479 64.9736 165.531 57.5704L143.875 119.159Z" fill="#181940"/>
<path d="M136.946 105.534L161.201 36.7792L163.799 37.7243C185.692 45.4425 202.466 64.2655 207.506 86.9477L208.136 89.6254L136.946 105.534ZM164.508 43.7886L145.372 98.0525L201.521 85.4513C196.481 66.6283 182.542 51.0343 164.508 43.7886Z" fill="#181940"/>
<path d="M121.747 139.715L143.403 78.2058C136.631 75.8431 129.307 74.4254 121.747 74.4254C85.6794 74.4254 56.4631 103.644 56.4631 139.715C56.4631 175.786 85.6794 205.005 121.747 205.005C157.814 205.005 187.031 175.786 187.031 139.715C187.031 134.832 186.479 130.028 185.377 125.381L121.747 139.715Z" fill="#181940"/>
<path d="M119.07 190.356C81.5848 190.356 51.0298 159.877 51.0298 122.31C51.0298 84.821 81.506 54.2631 119.07 54.2631C126.709 54.2631 134.269 55.602 141.671 58.201L144.27 59.0673L123.322 118.529L184.826 104.668L185.456 107.346C186.559 112.307 187.11 117.348 187.11 122.231C187.031 159.877 156.555 190.356 119.07 190.356ZM119.07 59.7761C84.5773 59.7761 56.5423 87.8138 56.5423 122.31C56.5423 156.805 84.5773 184.843 119.07 184.843C153.562 184.843 181.597 156.805 181.597 122.31C181.597 118.687 181.282 114.985 180.574 111.284L114.817 126.09L137.182 62.5327C131.276 60.7212 125.134 59.7761 119.07 59.7761Z" fill="#181940"/>
</g>
<defs>
<clipPath id="clip0_3_1579">
<rect width="252" height="251" fill="white"/>
</clipPath>
</defs>
</svg>
