<svg width="457" height="473" viewBox="0 0 457 473" fill="none" xmlns="http://www.w3.org/2000/svg">
<g clip-path="url(#clip0_3_496)">
<path d="M268.778 439.484C270.179 440.254 270.179 441.584 268.778 442.353C267.377 443.123 265.136 443.123 263.735 442.353C262.334 441.584 262.334 440.254 263.735 439.484C265.136 438.715 267.377 438.715 268.778 439.484Z" fill="#181940"/>
<path d="M281.947 431.925C283.348 432.695 283.348 434.024 281.947 434.794C280.546 435.564 278.304 435.564 276.903 434.794C275.502 434.024 275.502 432.695 276.903 431.925C278.304 431.085 280.546 431.085 281.947 431.925Z" fill="#181940"/>
<path d="M295.047 424.298C296.448 425.068 296.448 426.398 295.047 427.167C293.646 427.937 291.404 427.937 290.003 427.167C288.602 426.398 288.602 425.068 290.003 424.298C291.404 423.529 293.716 423.529 295.047 424.298Z" fill="#181940"/>
<path d="M308.215 416.744C309.616 417.514 309.616 418.843 308.215 419.613C306.814 420.383 304.573 420.383 303.172 419.613C301.771 418.843 301.771 417.514 303.172 416.744C304.573 415.975 306.814 415.975 308.215 416.744Z" fill="#181940"/>
<path d="M321.385 409.185C322.786 409.955 322.786 411.284 321.385 412.054C319.984 412.823 317.743 412.823 316.342 412.054C314.941 411.284 314.941 409.955 316.342 409.185C317.743 408.345 319.984 408.345 321.385 409.185Z" fill="#181940"/>
<path d="M334.483 401.558C335.884 402.328 335.884 403.657 334.483 404.427C333.082 405.197 330.841 405.197 329.44 404.427C328.039 403.657 328.039 402.328 329.44 401.558C330.841 400.789 333.153 400.789 334.483 401.558Z" fill="#181940"/>
<path d="M255.608 431.925C257.009 432.695 257.009 434.024 255.608 434.794C254.207 435.564 251.966 435.564 250.565 434.794C249.164 434.024 249.164 432.695 250.565 431.925C251.966 431.085 254.278 431.085 255.608 431.925Z" fill="#181940"/>
<path d="M268.778 424.298C270.179 425.068 270.179 426.398 268.778 427.167C267.377 427.937 265.136 427.937 263.735 427.167C262.334 426.398 262.334 425.068 263.735 424.298C265.136 423.529 267.377 423.529 268.778 424.298Z" fill="#181940"/>
<path d="M281.947 416.744C283.348 417.514 283.348 418.843 281.947 419.613C280.546 420.383 278.304 420.383 276.903 419.613C275.502 418.843 275.502 417.514 276.903 416.744C278.304 415.975 280.546 415.975 281.947 416.744Z" fill="#181940"/>
<path d="M295.047 409.185C296.448 409.955 296.448 411.284 295.047 412.054C293.646 412.823 291.404 412.823 290.003 412.054C288.602 411.284 288.602 409.955 290.003 409.185C291.404 408.345 293.716 408.345 295.047 409.185Z" fill="#181940"/>
<path d="M308.215 401.558C309.616 402.328 309.616 403.657 308.215 404.427C306.814 405.197 304.573 405.197 303.172 404.427C301.771 403.657 301.771 402.328 303.172 401.558C304.573 400.789 306.814 400.789 308.215 401.558Z" fill="#181940"/>
<path d="M321.385 394.004C322.786 394.774 322.786 396.103 321.385 396.873C319.984 397.642 317.743 397.642 316.342 396.873C314.941 396.103 314.941 394.774 316.342 394.004C317.743 393.234 319.984 393.234 321.385 394.004Z" fill="#181940"/>
<path d="M242.51 424.298C243.911 425.068 243.911 426.398 242.51 427.167C241.109 427.937 238.867 427.937 237.466 427.167C236.065 426.398 236.065 425.068 237.466 424.298C238.867 423.529 241.109 423.529 242.51 424.298Z" fill="#181940"/>
<path d="M255.608 416.744C257.009 417.514 257.009 418.843 255.608 419.613C254.207 420.383 251.966 420.383 250.565 419.613C249.164 418.843 249.164 417.514 250.565 416.744C251.966 415.975 254.278 415.975 255.608 416.744Z" fill="#181940"/>
<path d="M268.778 409.185C270.179 409.955 270.179 411.284 268.778 412.054C267.377 412.823 265.136 412.823 263.735 412.054C262.334 411.284 262.334 409.955 263.735 409.185C265.136 408.345 267.377 408.345 268.778 409.185Z" fill="#181940"/>
<path d="M281.947 401.558C283.348 402.328 283.348 403.657 281.947 404.427C280.546 405.197 278.304 405.197 276.903 404.427C275.502 403.657 275.502 402.328 276.903 401.558C278.304 400.789 280.546 400.789 281.947 401.558Z" fill="#181940"/>
<path d="M295.047 394.004C296.448 394.774 296.448 396.103 295.047 396.873C293.646 397.642 291.404 397.642 290.003 396.873C288.602 396.103 288.602 394.774 290.003 394.004C291.404 393.234 293.716 393.234 295.047 394.004Z" fill="#181940"/>
<path d="M308.215 386.445C309.616 387.214 309.616 388.544 308.215 389.313C306.814 390.083 304.573 390.083 303.172 389.313C301.771 388.544 301.771 387.214 303.172 386.445C304.573 385.605 306.814 385.605 308.215 386.445Z" fill="#181940"/>
<path d="M229.34 416.744C230.741 417.514 230.741 418.843 229.34 419.613C227.939 420.383 225.697 420.383 224.296 419.613C222.895 418.843 222.895 417.514 224.296 416.744C225.697 415.975 227.939 415.975 229.34 416.744Z" fill="#181940"/>
<path d="M242.51 409.185C243.911 409.955 243.911 411.284 242.51 412.054C241.109 412.823 238.867 412.823 237.466 412.054C236.065 411.284 236.065 409.955 237.466 409.185C238.867 408.345 241.109 408.345 242.51 409.185Z" fill="#181940"/>
<path d="M255.608 401.558C257.009 402.328 257.009 403.657 255.608 404.427C254.207 405.197 251.966 405.197 250.565 404.427C249.164 403.657 249.164 402.328 250.565 401.558C251.966 400.789 254.278 400.789 255.608 401.558Z" fill="#181940"/>
<path d="M268.778 394.004C270.179 394.774 270.179 396.103 268.778 396.873C267.377 397.642 265.136 397.642 263.735 396.873C262.334 396.103 262.334 394.774 263.735 394.004C265.136 393.234 267.377 393.234 268.778 394.004Z" fill="#181940"/>
<path d="M281.947 386.445C283.348 387.214 283.348 388.544 281.947 389.313C280.546 390.083 278.304 390.083 276.903 389.313C275.502 388.544 275.502 387.214 276.903 386.445C278.304 385.605 280.546 385.605 281.947 386.445Z" fill="#181940"/>
<path d="M295.047 378.817C296.448 379.587 296.448 380.917 295.047 381.686C293.646 382.456 291.404 382.456 290.003 381.686C288.602 380.917 288.602 379.587 290.003 378.817C291.404 378.048 293.716 378.048 295.047 378.817Z" fill="#181940"/>
<path d="M216.171 409.185C217.572 409.955 217.572 411.284 216.171 412.054C214.77 412.823 212.529 412.823 211.128 412.054C209.727 411.284 209.727 409.955 211.128 409.185C212.599 408.345 214.84 408.345 216.171 409.185Z" fill="#181940"/>
<path d="M229.34 401.558C230.741 402.328 230.741 403.657 229.34 404.427C227.939 405.197 225.697 405.197 224.296 404.427C222.895 403.657 222.895 402.328 224.296 401.558C225.697 400.789 227.939 400.789 229.34 401.558Z" fill="#181940"/>
<path d="M239.988 397.502C241.961 397.502 243.561 396.594 243.561 395.473C243.561 394.352 241.961 393.444 239.988 393.444C238.015 393.444 236.416 394.352 236.416 395.473C236.416 396.594 238.015 397.502 239.988 397.502Z" fill="#181940"/>
<path d="M255.608 386.445C257.009 387.214 257.009 388.544 255.608 389.313C254.207 390.083 251.966 390.083 250.565 389.313C249.164 388.544 249.164 387.214 250.565 386.445C251.966 385.605 254.278 385.605 255.608 386.445Z" fill="#181940"/>
<path d="M268.778 378.817C270.179 379.587 270.179 380.917 268.778 381.686C267.377 382.456 265.136 382.456 263.735 381.686C262.334 380.917 262.334 379.587 263.735 378.817C265.136 378.048 267.377 378.048 268.778 378.817Z" fill="#181940"/>
<path d="M281.947 371.263C283.348 372.033 283.348 373.362 281.947 374.132C280.546 374.902 278.304 374.902 276.903 374.132C275.502 373.362 275.502 372.033 276.903 371.263C278.304 370.494 280.546 370.494 281.947 371.263Z" fill="#181940"/>
<path d="M202.931 401.489C204.332 402.259 204.332 403.589 202.931 404.358C201.53 405.128 199.289 405.128 197.888 404.358C196.487 403.589 196.487 402.259 197.888 401.489C199.289 400.72 201.53 400.72 202.931 401.489Z" fill="#181940"/>
<path d="M216.101 393.933C217.502 394.703 217.502 396.033 216.101 396.802C214.7 397.572 212.459 397.572 211.058 396.802C209.657 396.033 209.657 394.703 211.058 393.933C212.459 393.094 214.7 393.094 216.101 393.933Z" fill="#181940"/>
<path d="M242.37 378.749C243.771 379.519 243.771 380.848 242.37 381.618C240.969 382.388 238.727 382.388 237.326 381.618C235.925 380.848 235.925 379.519 237.326 378.749C238.727 377.979 240.969 377.979 242.37 378.749Z" fill="#181940"/>
<path d="M97.7876 446.97C99.1886 447.74 99.1886 449.069 97.7876 449.839C96.3867 450.609 94.1451 450.609 92.7441 449.839C91.3431 449.069 91.3431 447.74 92.7441 446.97C94.1451 446.201 96.3867 446.201 97.7876 446.97Z" fill="#181940"/>
<path d="M110.958 439.414C112.359 440.184 112.359 441.513 110.958 442.283C109.557 443.052 107.315 443.052 105.914 442.283C104.513 441.513 104.513 440.184 105.914 439.414C107.315 438.574 109.557 438.574 110.958 439.414Z" fill="#181940"/>
<path d="M124.056 431.857C125.457 432.626 125.457 433.956 124.056 434.726C122.655 435.495 120.414 435.495 119.013 434.726C117.612 433.956 117.612 432.626 119.013 431.857C120.414 431.017 122.655 431.017 124.056 431.857Z" fill="#181940"/>
<path d="M137.226 424.23C138.627 425 138.627 426.329 137.226 427.099C135.825 427.869 133.584 427.869 132.183 427.099C130.782 426.329 130.782 425 132.183 424.23C133.584 423.46 135.825 423.46 137.226 424.23Z" fill="#181940"/>
<path d="M150.395 416.674C151.796 417.443 151.796 418.773 150.395 419.542C148.994 420.312 146.752 420.312 145.351 419.542C143.95 418.773 143.95 417.443 145.351 416.674C146.752 415.834 148.994 415.834 150.395 416.674Z" fill="#181940"/>
<path d="M163.494 409.117C164.895 409.886 164.895 411.216 163.494 411.985C162.093 412.755 159.852 412.755 158.451 411.985C157.05 411.216 157.05 409.886 158.451 409.117C159.852 408.277 162.093 408.277 163.494 409.117Z" fill="#181940"/>
<path d="M176.663 401.489C178.064 402.259 178.064 403.589 176.663 404.358C175.262 405.128 173.021 405.128 171.62 404.358C170.219 403.589 170.219 402.259 171.62 401.489C173.021 400.72 175.262 400.72 176.663 401.489Z" fill="#181940"/>
<path d="M255.538 371.193C256.939 371.962 256.939 373.292 255.538 374.061C254.137 374.831 251.896 374.831 250.495 374.061C249.094 373.292 249.094 371.962 250.495 371.193C251.896 370.353 254.137 370.353 255.538 371.193Z" fill="#181940"/>
<path d="M268.638 363.566C270.039 364.336 270.039 365.665 268.638 366.435C267.237 367.205 264.996 367.205 263.595 366.435C262.194 365.665 262.194 364.336 263.595 363.566C265.066 362.796 267.307 362.796 268.638 363.566Z" fill="#181940"/>
<path d="M189.833 393.933C191.234 394.703 191.234 396.033 189.833 396.802C188.432 397.572 186.19 397.572 184.79 396.802C183.389 396.033 183.389 394.703 184.79 393.933C186.19 393.094 188.432 393.094 189.833 393.933Z" fill="#181940"/>
<path d="M202.931 386.376C204.332 387.146 204.332 388.475 202.931 389.245C201.53 390.014 199.289 390.014 197.888 389.245C196.487 388.475 196.487 387.146 197.888 386.376C199.289 385.536 201.53 385.536 202.931 386.376Z" fill="#181940"/>
<path d="M229.27 371.193C230.671 371.962 230.671 373.292 229.27 374.061C227.869 374.831 225.627 374.831 224.226 374.061C222.825 373.292 222.825 371.962 224.226 371.193C225.627 370.353 227.869 370.353 229.27 371.193Z" fill="#181940"/>
<path d="M71.5191 446.97C72.9201 447.74 72.9201 449.069 71.5191 449.839C70.1181 450.609 67.8765 450.609 66.4755 449.839C65.0746 449.069 65.0746 447.74 66.4755 446.97C67.8765 446.201 70.1181 446.201 71.5191 446.97Z" fill="#181940"/>
<path d="M84.6192 439.414C86.0202 440.184 86.0202 441.513 84.6192 442.283C83.2182 443.052 80.9766 443.052 79.5756 442.283C78.1747 441.513 78.1747 440.184 79.5756 439.414C80.9766 438.574 83.2182 438.574 84.6192 439.414Z" fill="#181940"/>
<path d="M97.7876 431.857C99.1886 432.626 99.1886 433.956 97.7876 434.726C96.3867 435.495 94.1451 435.495 92.7441 434.726C91.3431 433.956 91.3431 432.626 92.7441 431.857C94.1451 431.017 96.3867 431.017 97.7876 431.857Z" fill="#181940"/>
<path d="M110.958 424.23C112.359 425 112.359 426.329 110.958 427.099C109.557 427.869 107.315 427.869 105.914 427.099C104.513 426.329 104.513 425 105.914 424.23C107.315 423.46 109.557 423.46 110.958 424.23Z" fill="#181940"/>
<path d="M124.056 416.674C125.457 417.443 125.457 418.773 124.056 419.542C122.655 420.312 120.414 420.312 119.013 419.542C117.612 418.773 117.612 417.443 119.013 416.674C120.414 415.834 122.655 415.834 124.056 416.674Z" fill="#181940"/>
<path d="M137.226 409.117C138.627 409.887 138.627 411.217 137.226 411.986C135.825 412.756 133.584 412.756 132.183 411.986C130.782 411.217 130.782 409.887 132.183 409.117C133.584 408.348 135.825 408.278 137.226 409.117Z" fill="#181940"/>
<path d="M147.873 404.988C149.846 404.988 151.445 404.079 151.445 402.958C151.445 401.838 149.846 400.929 147.873 400.929C145.9 400.929 144.3 401.838 144.3 402.958C144.3 404.079 145.9 404.988 147.873 404.988Z" fill="#181940"/>
<path d="M163.494 393.933C164.895 394.703 164.895 396.033 163.494 396.802C162.093 397.572 159.852 397.572 158.451 396.802C157.05 396.033 157.05 394.703 158.451 393.933C159.852 393.094 162.093 393.094 163.494 393.933Z" fill="#181940"/>
<path d="M242.37 363.566C243.771 364.336 243.771 365.665 242.37 366.435C240.969 367.205 238.727 367.205 237.326 366.435C235.925 365.665 235.925 364.336 237.326 363.566C238.727 362.796 240.969 362.796 242.37 363.566Z" fill="#181940"/>
<path d="M255.538 356.009C256.939 356.779 256.939 358.108 255.538 358.878C254.137 359.647 251.896 359.647 250.495 358.878C249.094 358.108 249.094 356.779 250.495 356.009C251.896 355.239 254.137 355.239 255.538 356.009Z" fill="#181940"/>
<path d="M176.663 386.376C178.064 387.146 178.064 388.475 176.663 389.245C175.262 390.014 173.021 390.014 171.62 389.245C170.219 388.475 170.219 387.146 171.62 386.376C173.021 385.536 175.262 385.536 176.663 386.376Z" fill="#181940"/>
<path d="M189.833 378.749C191.234 379.519 191.234 380.848 189.833 381.618C188.432 382.388 186.19 382.388 184.79 381.618C183.389 380.848 183.389 379.519 184.79 378.749C186.19 377.979 188.432 377.979 189.833 378.749Z" fill="#181940"/>
<path d="M187.311 412.545C189.284 412.545 190.884 411.637 190.884 410.516C190.884 409.395 189.284 408.487 187.311 408.487C185.338 408.487 183.739 409.395 183.739 410.516C183.739 411.637 185.338 412.545 187.311 412.545Z" fill="#181940"/>
<path d="M216.101 363.566C217.502 364.336 217.502 365.665 216.101 366.435C214.7 367.205 212.459 367.205 211.058 366.435C209.657 365.665 209.657 364.336 211.058 363.566C212.459 362.796 214.7 362.796 216.101 363.566Z" fill="#181940"/>
<path d="M58.3506 439.414C59.7516 440.184 59.7516 441.513 58.3506 442.283C56.9496 443.052 54.7081 443.052 53.3071 442.283C51.9061 441.513 51.9061 440.184 53.3071 439.414C54.7081 438.574 56.9496 438.574 58.3506 439.414Z" fill="#181940"/>
<path d="M71.5191 431.857C72.9201 432.626 72.9201 433.956 71.5191 434.726C70.1181 435.495 67.8765 435.495 66.4755 434.726C65.0746 433.956 65.0746 432.626 66.4755 431.857C67.8765 431.017 70.1181 431.017 71.5191 431.857Z" fill="#181940"/>
<path d="M84.6192 424.23C86.0202 425 86.0202 426.329 84.6192 427.099C83.2182 427.869 80.9766 427.869 79.5756 427.099C78.1747 426.329 78.1747 425 79.5756 424.23C80.9766 423.46 83.2182 423.46 84.6192 424.23Z" fill="#181940"/>
<path d="M97.7876 416.674C99.1886 417.443 99.1886 418.773 97.7876 419.542C96.3867 420.312 94.1451 420.312 92.7441 419.542C91.3431 418.773 91.3431 417.443 92.7441 416.674C94.1451 415.834 96.3867 415.834 97.7876 416.674Z" fill="#181940"/>
<path d="M110.958 409.117C112.359 409.886 112.359 411.216 110.958 411.985C109.557 412.755 107.315 412.755 105.914 411.985C104.513 411.216 104.513 409.886 105.914 409.117C107.315 408.277 109.557 408.277 110.958 409.117Z" fill="#181940"/>
<path d="M124.056 401.489C125.457 402.259 125.457 403.589 124.056 404.358C122.655 405.128 120.414 405.128 119.013 404.358C117.612 403.589 117.612 402.259 119.013 401.489C120.414 400.72 122.655 400.72 124.056 401.489Z" fill="#181940"/>
<path d="M137.226 393.933C138.627 394.703 138.627 396.033 137.226 396.802C135.825 397.572 133.584 397.572 132.183 396.802C130.782 396.033 130.782 394.703 132.183 393.933C133.584 393.094 135.825 393.094 137.226 393.933Z" fill="#181940"/>
<path d="M147.873 389.804C149.846 389.804 151.445 388.896 151.445 387.775C151.445 386.655 149.846 385.746 147.873 385.746C145.9 385.746 144.3 386.655 144.3 387.775C144.3 388.896 145.9 389.804 147.873 389.804Z" fill="#181940"/>
<path d="M160.972 382.247C162.945 382.247 164.545 381.339 164.545 380.218C164.545 379.097 162.945 378.189 160.972 378.189C158.999 378.189 157.4 379.097 157.4 380.218C157.4 381.339 158.999 382.247 160.972 382.247Z" fill="#181940"/>
<path d="M226.748 359.507C228.721 359.507 230.32 358.599 230.32 357.478C230.32 356.357 228.721 355.449 226.748 355.449C224.775 355.449 223.175 356.357 223.175 357.478C223.175 358.599 224.775 359.507 226.748 359.507Z" fill="#181940"/>
<path d="M242.37 348.452C243.771 349.222 243.771 350.552 242.37 351.321C240.969 352.091 238.727 352.091 237.326 351.321C235.925 350.552 235.925 349.222 237.326 348.452C238.727 347.613 240.969 347.613 242.37 348.452Z" fill="#181940"/>
<path d="M176.663 371.193C178.064 371.962 178.064 373.292 176.663 374.061C175.262 374.831 173.021 374.831 171.62 374.061C170.219 373.292 170.219 371.962 171.62 371.193C173.021 370.353 175.262 370.353 176.663 371.193Z" fill="#181940"/>
<path d="M202.931 356.009C204.332 356.779 204.332 358.108 202.931 358.878C201.53 359.647 199.289 359.647 197.888 358.878C196.487 358.108 196.487 356.779 197.888 356.009C199.289 355.239 201.53 355.239 202.931 356.009Z" fill="#181940"/>
<path d="M42.6604 435.285C44.6334 435.285 46.2329 434.377 46.2329 433.256C46.2329 432.136 44.6334 431.227 42.6604 431.227C40.6874 431.227 39.0879 432.136 39.0879 433.256C39.0879 434.377 40.6874 435.285 42.6604 435.285Z" fill="#181940"/>
<path d="M58.3506 424.23C59.7516 425 59.7516 426.329 58.3506 427.099C56.9496 427.869 54.7081 427.869 53.3071 427.099C51.9061 426.329 51.9061 425 53.3071 424.23C54.7081 423.46 56.9496 423.46 58.3506 424.23Z" fill="#181940"/>
<path d="M71.5191 416.674C72.9201 417.443 72.9201 418.773 71.5191 419.542C70.1181 420.312 67.8765 420.312 66.4755 419.542C65.0746 418.773 65.0746 417.443 66.4755 416.674C67.8765 415.834 70.1181 415.834 71.5191 416.674Z" fill="#181940"/>
<path d="M84.6192 409.117C86.0202 409.886 86.0202 411.216 84.6192 411.985C83.2182 412.755 80.9766 412.755 79.5756 411.985C78.1747 411.216 78.1747 409.886 79.5756 409.117C80.9766 408.277 83.2182 408.277 84.6192 409.117Z" fill="#181940"/>
<path d="M97.7876 401.489C99.1886 402.259 99.1886 403.589 97.7876 404.358C96.3867 405.128 94.1451 405.128 92.7441 404.358C91.3431 403.589 91.3431 402.259 92.7441 401.489C94.1451 400.72 96.3867 400.72 97.7876 401.489Z" fill="#181940"/>
<path d="M110.958 393.933C112.359 394.703 112.359 396.033 110.958 396.802C109.557 397.572 107.315 397.572 105.914 396.802C104.513 396.033 104.513 394.703 105.914 393.933C107.315 393.094 109.557 393.094 110.958 393.933Z" fill="#181940"/>
<path d="M124.056 386.376C125.457 387.146 125.457 388.475 124.056 389.245C122.655 390.014 120.414 390.014 119.013 389.245C117.612 388.475 117.612 387.146 119.013 386.376C120.414 385.536 122.655 385.536 124.056 386.376Z" fill="#181940"/>
<path d="M137.226 378.749C138.627 379.519 138.627 380.848 137.226 381.618C135.825 382.388 133.584 382.388 132.183 381.618C130.782 380.848 130.782 379.519 132.183 378.749C133.584 377.979 135.825 377.979 137.226 378.749Z" fill="#181940"/>
<path d="M150.395 371.193C151.796 371.962 151.796 373.292 150.395 374.061C148.994 374.831 146.752 374.831 145.351 374.061C143.95 373.292 143.95 371.962 145.351 371.193C146.752 370.353 148.994 370.353 150.395 371.193Z" fill="#181940"/>
<path d="M163.494 363.566C164.895 364.336 164.895 365.665 163.494 366.435C162.093 367.205 159.852 367.205 158.451 366.435C157.05 365.665 157.05 364.336 158.451 363.566C159.852 362.796 162.093 362.796 163.494 363.566Z" fill="#181940"/>
<path d="M216.101 348.452C217.502 349.222 217.502 350.552 216.101 351.321C214.7 352.091 212.459 352.091 211.058 351.321C209.657 350.552 209.657 349.222 211.058 348.452C212.459 347.613 214.7 347.613 216.101 348.452Z" fill="#181940"/>
<path d="M226.748 344.324C228.721 344.324 230.32 343.415 230.32 342.295C230.32 341.174 228.721 340.266 226.748 340.266C224.775 340.266 223.175 341.174 223.175 342.295C223.175 343.415 224.775 344.324 226.748 344.324Z" fill="#181940"/>
<path d="M189.833 348.452C191.234 349.222 191.234 350.552 189.833 351.321C188.432 352.091 186.19 352.091 184.79 351.321C183.389 350.552 183.389 349.222 184.79 348.452C186.19 347.613 188.432 347.613 189.833 348.452Z" fill="#181940"/>
<path d="M32.0823 424.23C33.4833 425 33.4833 426.329 32.0823 427.099C30.6813 427.869 28.4398 427.869 27.0388 427.099C25.6378 426.329 25.6378 425 27.0388 424.23C28.4398 423.46 30.6813 423.46 32.0823 424.23Z" fill="#181940"/>
<path d="M45.1822 416.674C46.5831 417.443 46.5831 418.773 45.1822 419.542C43.7812 420.312 41.5396 420.312 40.1386 419.542C38.7376 418.773 38.7376 417.443 40.1386 416.674C41.5396 415.834 43.7812 415.834 45.1822 416.674Z" fill="#181940"/>
<path d="M71.5191 401.489C72.9201 402.259 72.9201 403.589 71.5191 404.358C70.1181 405.128 67.8765 405.128 66.4755 404.358C65.0746 403.589 65.0746 402.259 66.4755 401.489C67.8765 400.72 70.1181 400.72 71.5191 401.489Z" fill="#181940"/>
<path d="M84.6192 393.933C86.0202 394.703 86.0202 396.033 84.6192 396.802C83.2182 397.572 80.9766 397.572 79.5756 396.802C78.1747 396.033 78.1747 394.703 79.5756 393.933C80.9766 393.094 83.2182 393.094 84.6192 393.933Z" fill="#181940"/>
<path d="M97.7876 386.376C99.1886 387.146 99.1886 388.475 97.7876 389.245C96.3867 390.014 94.1451 390.014 92.7441 389.245C91.3431 388.475 91.3431 387.146 92.7441 386.376C94.1451 385.536 96.3867 385.536 97.7876 386.376Z" fill="#181940"/>
<path d="M110.958 378.749C112.359 379.519 112.359 380.848 110.958 381.618C109.557 382.388 107.315 382.388 105.914 381.618C104.513 380.848 104.513 379.519 105.914 378.749C107.315 377.979 109.557 377.979 110.958 378.749Z" fill="#181940"/>
<path d="M124.056 371.193C125.457 371.962 125.457 373.292 124.056 374.061C122.655 374.831 120.414 374.831 119.013 374.061C117.612 373.292 117.612 371.962 119.013 371.193C120.414 370.353 122.655 370.353 124.056 371.193Z" fill="#181940"/>
<path d="M137.226 363.566C138.627 364.336 138.627 365.665 137.226 366.435C135.825 367.205 133.584 367.205 132.183 366.435C130.782 365.665 130.782 364.336 132.183 363.566C133.584 362.796 135.825 362.796 137.226 363.566Z" fill="#181940"/>
<path d="M150.395 356.009C151.796 356.779 151.796 358.108 150.395 358.878C148.994 359.647 146.752 359.647 145.351 358.878C143.95 358.108 143.95 356.779 145.351 356.009C146.752 355.239 148.994 355.239 150.395 356.009Z" fill="#181940"/>
<path d="M163.494 348.452C164.895 349.222 164.895 350.552 163.494 351.321C162.093 352.091 159.852 352.091 158.451 351.321C157.05 350.552 157.05 349.222 158.451 348.452C159.852 347.613 162.093 347.613 163.494 348.452Z" fill="#181940"/>
<path d="M202.931 340.826C204.332 341.595 204.332 342.925 202.931 343.695C201.53 344.464 199.289 344.464 197.888 343.695C196.487 342.925 196.487 341.595 197.888 340.826C199.289 340.056 201.53 340.056 202.931 340.826Z" fill="#181940"/>
<path d="M216.101 333.268C217.502 334.038 217.502 335.367 216.101 336.137C214.7 336.907 212.459 336.907 211.058 336.137C209.657 335.367 209.657 334.038 211.058 333.268C212.459 332.498 214.7 332.498 216.101 333.268Z" fill="#181940"/>
<path d="M176.663 340.826C178.064 341.595 178.064 342.925 176.663 343.695C175.262 344.464 173.021 344.464 171.62 343.695C170.219 342.925 170.219 341.595 171.62 340.826C173.021 340.056 175.262 340.056 176.663 340.826Z" fill="#181940"/>
<path d="M32.0823 409.117C33.4833 409.886 33.4833 411.216 32.0823 411.985C30.6813 412.755 28.4398 412.755 27.0388 411.985C25.6378 411.216 25.6378 409.886 27.0388 409.117C28.4398 408.277 30.6813 408.277 32.0823 409.117Z" fill="#181940"/>
<path d="M58.3506 393.933C59.7516 394.703 59.7516 396.033 58.3506 396.802C56.9496 397.572 54.7081 397.572 53.3071 396.802C51.9061 396.033 51.9061 394.703 53.3071 393.933C54.7081 393.094 56.9496 393.094 58.3506 393.933Z" fill="#181940"/>
<path d="M71.5191 386.376C72.9201 387.146 72.9201 388.475 71.5191 389.245C70.1181 390.014 67.8765 390.014 66.4755 389.245C65.0746 388.475 65.0746 387.146 66.4755 386.376C67.8765 385.536 70.1181 385.536 71.5191 386.376Z" fill="#181940"/>
<path d="M84.6192 378.749C86.0202 379.519 86.0202 380.848 84.6192 381.618C83.2182 382.388 80.9766 382.388 79.5756 381.618C78.1747 380.848 78.1747 379.519 79.5756 378.749C80.9766 377.979 83.2182 377.979 84.6192 378.749Z" fill="#181940"/>
<path d="M97.7876 371.193C99.1886 371.962 99.1886 373.292 97.7876 374.061C96.3867 374.831 94.1451 374.831 92.7441 374.061C91.3431 373.292 91.3431 371.962 92.7441 371.193C94.1451 370.353 96.3867 370.353 97.7876 371.193Z" fill="#181940"/>
<path d="M110.958 363.566C112.359 364.336 112.359 365.665 110.958 366.435C109.557 367.205 107.315 367.205 105.914 366.435C104.513 365.665 104.513 364.336 105.914 363.566C107.315 362.796 109.557 362.796 110.958 363.566Z" fill="#181940"/>
<path d="M124.056 356.009C125.457 356.779 125.457 358.108 124.056 358.878C122.655 359.647 120.414 359.647 119.013 358.878C117.612 358.108 117.612 356.779 119.013 356.009C120.414 355.239 122.655 355.239 124.056 356.009Z" fill="#181940"/>
<path d="M137.226 348.452C138.627 349.222 138.627 350.552 137.226 351.321C135.825 352.091 133.584 352.091 132.183 351.321C130.782 350.552 130.782 349.222 132.183 348.452C133.584 347.613 135.825 347.613 137.226 348.452Z" fill="#181940"/>
<path d="M150.395 340.826C151.796 341.595 151.796 342.925 150.395 343.695C148.994 344.464 146.752 344.464 145.351 343.695C143.95 342.925 143.95 341.595 145.351 340.826C146.752 340.056 148.994 340.056 150.395 340.826Z" fill="#181940"/>
<path d="M163.494 333.268C164.895 334.038 164.895 335.367 163.494 336.137C162.093 336.907 159.852 336.907 158.451 336.137C157.05 335.367 157.05 334.038 158.451 333.268C159.852 332.498 162.093 332.498 163.494 333.268Z" fill="#181940"/>
<path d="M189.833 333.268C191.234 334.038 191.234 335.367 189.833 336.137C188.432 336.907 186.19 336.907 184.79 336.137C183.389 335.367 183.389 334.038 184.79 333.268C186.19 332.498 188.432 332.498 189.833 333.268Z" fill="#181940"/>
<path d="M202.931 325.712C204.332 326.482 204.332 327.811 202.931 328.581C201.53 329.351 199.289 329.351 197.888 328.581C196.487 327.811 196.487 326.482 197.888 325.712C199.289 324.873 201.53 324.873 202.931 325.712Z" fill="#181940"/>
<path d="M110.957 348.451C112.358 349.22 112.358 350.55 110.957 351.319C109.556 352.089 107.315 352.089 105.914 351.319C104.513 350.55 109.556 347.611 110.957 348.451Z" fill="#181940"/>
<path d="M119.013 340.826C120.414 340.056 122.655 340.056 124.056 340.826C125.457 341.595 125.457 342.925 124.056 343.695C122.655 344.464 120.414 344.464 119.013 343.695C117.682 342.925 117.682 341.665 119.013 340.826C120.414 340.056 117.682 341.665 119.013 340.826Z" fill="#181940"/>
<path d="M137.226 333.268C138.627 334.038 138.627 335.367 137.226 336.137C135.825 336.907 133.584 336.907 132.183 336.137C130.782 335.367 130.782 334.038 132.183 333.268C133.584 332.498 135.825 332.498 137.226 333.268Z" fill="#181940"/>
<path d="M150.395 325.712C151.796 326.482 151.796 327.811 150.395 328.581C148.994 329.351 146.752 329.351 145.351 328.581C143.95 327.811 143.95 326.482 145.351 325.712C146.752 324.873 148.994 324.873 150.395 325.712Z" fill="#181940"/>
<path d="M163.494 318.085C164.895 318.855 164.895 320.184 163.494 320.954C162.093 321.724 159.852 321.724 158.451 320.954C157.05 320.184 157.05 318.855 158.451 318.085C159.852 317.315 162.093 317.315 163.494 318.085Z" fill="#181940"/>
<path d="M176.663 325.712C178.064 326.482 178.064 327.811 176.663 328.581C175.262 329.351 173.021 329.351 171.62 328.581C170.219 327.811 170.219 326.482 171.62 325.712C173.021 324.873 175.262 324.873 176.663 325.712Z" fill="#181940"/>
<path d="M189.833 318.085C191.234 318.855 191.234 320.184 189.833 320.954C188.432 321.724 186.19 321.724 184.79 320.954C183.389 320.184 183.389 318.855 184.79 318.085C186.19 317.315 188.432 317.315 189.833 318.085Z" fill="#181940"/>
<path d="M176.663 310.528C178.064 311.298 178.064 312.627 176.663 313.397C175.262 314.166 173.021 314.166 171.62 313.397C170.219 312.627 170.219 311.298 171.62 310.528C173.021 309.758 175.262 309.758 176.663 310.528Z" fill="#181940"/>
<path d="M268.708 351.462C267.307 352.232 265.065 352.232 263.665 351.462C262.264 350.692 262.264 349.363 263.665 348.593C265.065 347.754 270.109 350.622 268.708 351.462Z" fill="#181940"/>
<path d="M255.538 343.835C254.137 344.604 251.896 344.604 250.495 343.835C249.094 343.065 249.094 341.736 250.495 340.966C251.896 340.196 256.939 343.065 255.538 343.835Z" fill="#181940"/>
<path d="M242.44 333.41C243.841 334.179 243.841 335.509 242.44 336.278C241.039 337.048 238.797 337.118 237.396 336.278C235.995 335.439 235.995 334.179 237.396 333.41C238.797 332.57 241.039 332.57 242.44 333.41C243.771 334.179 241.039 332.57 242.44 333.41Z" fill="#181940"/>
<path d="M229.27 328.722C227.869 329.491 225.627 329.491 224.226 328.722C222.825 327.952 222.825 326.623 224.226 325.853C225.627 325.013 230.671 327.882 229.27 328.722Z" fill="#181940"/>
<path d="M347.934 469.502C349.335 470.272 349.335 471.601 347.934 472.371C346.533 473.141 344.292 473.141 342.891 472.371C341.49 471.601 341.49 470.272 342.891 469.502C344.292 468.732 346.533 468.732 347.934 469.502Z" fill="#181940"/>
<path d="M361.032 461.945C362.433 462.715 362.433 464.044 361.032 464.814C359.631 465.583 357.39 465.583 355.989 464.814C354.588 464.044 354.588 462.715 355.989 461.945C357.39 461.175 359.701 461.175 361.032 461.945Z" fill="#181940"/>
<path d="M374.203 454.389C375.604 455.158 375.604 456.488 374.203 457.257C372.802 458.027 370.56 458.027 369.159 457.257C367.758 456.488 367.758 455.158 369.159 454.389C370.56 453.549 372.802 453.549 374.203 454.389Z" fill="#181940"/>
<path d="M387.371 446.762C388.772 447.531 388.772 448.861 387.371 449.631C385.97 450.4 383.729 450.4 382.328 449.631C380.927 448.861 380.927 447.531 382.328 446.762C383.729 445.992 385.97 445.992 387.371 446.762Z" fill="#181940"/>
<path d="M321.525 469.431C322.926 470.2 322.926 471.53 321.525 472.3C320.124 473.069 317.883 473.069 316.482 472.3C315.081 471.53 315.081 470.2 316.482 469.431C317.883 468.661 320.124 468.661 321.525 469.431Z" fill="#181940"/>
<path d="M334.624 461.874C336.025 462.644 336.025 463.973 334.624 464.743C333.223 465.513 330.981 465.513 329.58 464.743C328.179 463.973 328.179 462.644 329.58 461.874C330.981 461.035 333.293 461.035 334.624 461.874Z" fill="#181940"/>
<path d="M347.794 454.317C349.195 455.087 349.195 456.416 347.794 457.186C346.393 457.956 344.151 457.956 342.75 457.186C341.349 456.416 341.349 455.087 342.75 454.317C344.151 453.478 346.393 453.478 347.794 454.317Z" fill="#181940"/>
<path d="M360.962 446.69C362.363 447.46 362.363 448.789 360.962 449.559C359.561 450.329 357.32 450.329 355.919 449.559C354.518 448.789 354.518 447.46 355.919 446.69C357.32 445.92 359.561 445.92 360.962 446.69Z" fill="#181940"/>
<path d="M371.611 442.631C373.584 442.631 375.183 441.723 375.183 440.602C375.183 439.481 373.584 438.573 371.611 438.573C369.638 438.573 368.038 439.481 368.038 440.602C368.038 441.723 369.638 442.631 371.611 442.631Z" fill="#181940"/>
<path d="M387.231 431.577C388.631 432.346 388.631 433.676 387.231 434.445C385.83 435.215 383.588 435.215 382.187 434.445C380.786 433.676 380.786 432.346 382.187 431.577C383.588 430.737 385.83 430.737 387.231 431.577Z" fill="#181940"/>
<path d="M308.355 461.874C309.756 462.644 309.756 463.973 308.355 464.743C306.955 465.513 304.713 465.513 303.312 464.743C301.911 463.973 301.911 462.644 303.312 461.874C304.713 461.035 306.955 461.035 308.355 461.874Z" fill="#181940"/>
<path d="M319.004 457.746C320.977 457.746 322.576 456.837 322.576 455.717C322.576 454.596 320.977 453.688 319.004 453.688C317.031 453.688 315.431 454.596 315.431 455.717C315.431 456.837 317.031 457.746 319.004 457.746Z" fill="#181940"/>
<path d="M334.624 446.69C336.025 447.46 336.025 448.789 334.624 449.559C333.223 450.329 330.981 450.329 329.58 449.559C328.179 448.789 328.179 447.46 329.58 446.69C330.981 445.92 333.293 445.92 334.624 446.69Z" fill="#181940"/>
<path d="M347.794 439.134C349.195 439.903 349.195 441.233 347.794 442.002C346.393 442.772 344.151 442.772 342.75 442.002C341.349 441.233 341.349 439.903 342.75 439.134C344.151 438.294 346.393 438.294 347.794 439.134Z" fill="#181940"/>
<path d="M360.962 431.577C362.363 432.346 362.363 433.676 360.962 434.445C359.561 435.215 357.32 435.215 355.919 434.445C354.518 433.676 354.518 432.346 355.919 431.577C357.32 430.737 359.561 430.737 360.962 431.577Z" fill="#181940"/>
<path d="M374.062 423.95C375.463 424.719 375.463 426.049 374.062 426.819C372.661 427.588 370.419 427.588 369.019 426.819C367.618 426.049 367.618 424.719 369.019 423.95C370.419 423.18 372.731 423.18 374.062 423.95Z" fill="#181940"/>
<path d="M295.187 454.318C296.588 455.088 296.588 456.417 295.187 457.187C293.786 457.957 291.544 457.957 290.144 457.187C288.743 456.417 288.743 455.088 290.144 454.318C291.544 453.548 293.856 453.478 295.187 454.318Z" fill="#181940"/>
<path d="M308.355 446.69C309.756 447.46 309.756 448.789 308.355 449.559C306.955 450.329 304.713 450.329 303.312 449.559C301.911 448.789 301.911 447.46 303.312 446.69C304.713 445.92 306.955 445.92 308.355 446.69Z" fill="#181940"/>
<path d="M319.004 442.631C320.977 442.631 322.576 441.723 322.576 440.602C322.576 439.481 320.977 438.573 319.004 438.573C317.031 438.573 315.431 439.481 315.431 440.602C315.431 441.723 317.031 442.631 319.004 442.631Z" fill="#181940"/>
<path d="M334.624 431.577C336.025 432.346 336.025 433.676 334.624 434.445C333.223 435.215 330.981 435.215 329.58 434.445C328.179 433.676 328.179 432.346 329.58 431.577C330.981 430.737 333.293 430.737 334.624 431.577Z" fill="#181940"/>
<path d="M347.794 423.95C349.195 424.719 349.195 426.049 347.794 426.819C346.393 427.588 344.151 427.588 342.75 426.819C341.349 426.049 341.349 424.719 342.75 423.95C344.151 423.18 346.393 423.18 347.794 423.95Z" fill="#181940"/>
<path d="M360.962 416.393C362.363 417.163 362.363 418.493 360.962 419.262C359.561 420.032 357.32 420.032 355.919 419.262C354.518 418.493 354.518 417.163 355.919 416.393C357.32 415.554 359.561 415.554 360.962 416.393Z" fill="#181940"/>
<path d="M282.087 446.69C283.488 447.46 283.488 448.789 282.087 449.559C280.686 450.329 278.444 450.329 277.043 449.559C275.642 448.789 275.642 447.46 277.043 446.69C278.444 445.92 280.686 445.92 282.087 446.69Z" fill="#181940"/>
<path d="M295.187 439.134C296.588 439.903 296.588 441.233 295.187 442.002C293.786 442.772 291.544 442.772 290.144 442.002C288.743 441.233 288.743 439.903 290.144 439.134C291.544 438.294 293.856 438.294 295.187 439.134Z" fill="#181940"/>
<path d="M308.355 431.577C309.756 432.346 309.756 433.676 308.355 434.445C306.955 435.215 304.713 435.215 303.312 434.445C301.911 433.676 301.911 432.346 303.312 431.577C304.713 430.737 306.955 430.737 308.355 431.577Z" fill="#181940"/>
<path d="M321.525 423.95C322.926 424.719 322.926 426.049 321.525 426.819C320.124 427.588 317.883 427.588 316.482 426.819C315.081 426.049 315.081 424.719 316.482 423.95C317.883 423.18 320.124 423.18 321.525 423.95Z" fill="#181940"/>
<path d="M334.624 416.393C336.025 417.163 336.025 418.493 334.624 419.262C333.223 420.032 330.981 420.032 329.58 419.262C328.179 418.493 328.179 417.163 329.58 416.393C330.981 415.554 333.293 415.554 334.624 416.393Z" fill="#181940"/>
<path d="M347.794 408.836C349.195 409.606 349.195 410.935 347.794 411.705C346.393 412.475 344.151 412.475 342.75 411.705C341.349 410.935 341.349 409.606 342.75 408.836C344.151 407.997 346.393 407.997 347.794 408.836Z" fill="#181940"/>
<path d="M397.667 305.351C399.64 305.351 401.24 304.443 401.24 303.322C401.24 302.201 399.64 301.293 397.667 301.293C395.694 301.293 394.095 302.201 394.095 303.322C394.095 304.443 395.694 305.351 397.667 305.351Z" fill="#181940"/>
<path d="M413.289 294.294C414.69 295.063 414.69 296.393 413.289 297.163C411.888 297.932 409.646 297.932 408.245 297.163C406.844 296.393 406.844 295.063 408.245 294.294C409.716 293.454 411.958 293.454 413.289 294.294Z" fill="#181940"/>
<path d="M423.935 290.168C425.908 290.168 427.508 289.26 427.508 288.139C427.508 287.018 425.908 286.11 423.935 286.11C421.962 286.11 420.363 287.018 420.363 288.139C420.363 289.26 421.962 290.168 423.935 290.168Z" fill="#181940"/>
<path d="M437.106 282.611C439.079 282.611 440.678 281.703 440.678 280.582C440.678 279.461 439.079 278.553 437.106 278.553C435.133 278.553 433.533 279.461 433.533 280.582C433.533 281.703 435.133 282.611 437.106 282.611Z" fill="#181940"/>
<path d="M387.021 294.294C388.422 295.063 388.422 296.393 387.021 297.163C385.62 297.932 383.378 297.932 381.977 297.163C380.576 296.393 380.576 295.063 381.977 294.294C383.378 293.454 385.62 293.454 387.021 294.294Z" fill="#181940"/>
<path d="M400.189 286.667C401.59 287.437 401.59 288.766 400.189 289.536C398.788 290.306 396.546 290.306 395.145 289.536C393.744 288.766 393.744 287.437 395.145 286.667C396.546 285.897 398.788 285.897 400.189 286.667Z" fill="#181940"/>
<path d="M410.837 282.611C412.81 282.611 414.41 281.703 414.41 280.582C414.41 279.461 412.81 278.553 410.837 278.553C408.864 278.553 407.265 279.461 407.265 280.582C407.265 281.703 408.864 282.611 410.837 282.611Z" fill="#181940"/>
<path d="M426.457 271.554C427.858 272.323 427.858 273.653 426.457 274.422C425.056 275.192 422.815 275.192 421.414 274.422C420.013 273.653 420.013 272.323 421.414 271.554C422.815 270.714 425.056 270.714 426.457 271.554Z" fill="#181940"/>
<path d="M373.92 286.667C375.321 287.437 375.321 288.766 373.92 289.536C372.519 290.306 370.278 290.306 368.877 289.536C367.476 288.766 367.476 287.437 368.877 286.667C370.278 285.897 372.519 285.897 373.92 286.667Z" fill="#181940"/>
<path d="M384.499 282.611C386.472 282.611 388.071 281.703 388.071 280.582C388.071 279.461 386.472 278.553 384.499 278.553C382.526 278.553 380.926 279.461 380.926 280.582C380.926 281.703 382.526 282.611 384.499 282.611Z" fill="#181940"/>
<path d="M400.189 271.555C401.59 272.325 401.59 273.654 400.189 274.424C398.788 275.193 396.546 275.193 395.145 274.424C393.744 273.654 393.744 272.325 395.145 271.555C396.546 270.785 398.788 270.715 400.189 271.555Z" fill="#181940"/>
<path d="M410.837 267.428C412.81 267.428 414.41 266.519 414.41 265.399C414.41 264.278 412.81 263.37 410.837 263.37C408.864 263.37 407.265 264.278 407.265 265.399C407.265 266.519 408.864 267.428 410.837 267.428Z" fill="#181940"/>
<path d="M358.23 282.611C360.203 282.611 361.803 281.703 361.803 280.582C361.803 279.461 360.203 278.553 358.23 278.553C356.257 278.553 354.658 279.461 354.658 280.582C354.658 281.703 356.257 282.611 358.23 282.611Z" fill="#181940"/>
<path d="M373.92 271.554C375.321 272.323 375.321 273.653 373.92 274.422C372.519 275.192 370.278 275.192 368.877 274.422C367.476 273.653 367.476 272.323 368.877 271.554C370.278 270.714 372.519 270.714 373.92 271.554Z" fill="#181940"/>
<path d="M387.021 263.927C388.422 264.697 388.422 266.026 387.021 266.796C385.62 267.565 383.378 267.565 381.977 266.796C380.576 266.026 380.576 264.697 381.977 263.927C383.378 263.157 385.62 263.157 387.021 263.927Z" fill="#181940"/>
<path d="M400.189 256.37C401.59 257.14 401.59 258.47 400.189 259.239C398.788 260.009 396.546 260.009 395.145 259.239C393.744 258.47 393.744 257.14 395.145 256.37C396.546 255.531 398.788 255.531 400.189 256.37Z" fill="#181940"/>
<path d="M347.582 271.554C348.983 272.323 348.983 273.653 347.582 274.422C346.181 275.192 343.94 275.192 342.539 274.422C341.138 273.653 341.138 272.323 342.539 271.554C343.94 270.714 346.181 270.714 347.582 271.554Z" fill="#181940"/>
<path d="M360.752 263.927C362.153 264.697 362.153 266.026 360.752 266.796C359.351 267.565 357.109 267.565 355.708 266.796C354.307 266.026 354.307 264.697 355.708 263.927C357.109 263.157 359.351 263.157 360.752 263.927Z" fill="#181940"/>
<path d="M373.92 256.37C375.321 257.14 375.321 258.47 373.92 259.239C372.519 260.009 370.278 260.009 368.877 259.239C367.476 258.47 367.476 257.14 368.877 256.37C370.278 255.531 372.519 255.531 373.92 256.37Z" fill="#181940"/>
<path d="M387.021 248.744C388.422 249.513 388.422 250.843 387.021 251.613C385.62 252.382 383.378 252.382 381.977 251.613C380.576 250.843 380.576 249.513 381.977 248.744C383.378 247.974 385.62 247.974 387.021 248.744Z" fill="#181940"/>
<path d="M334.343 263.858C335.744 264.628 335.744 265.957 334.343 266.727C332.942 267.496 330.701 267.496 329.3 266.727C327.899 265.957 327.899 264.628 329.3 263.858C330.701 263.088 332.942 263.088 334.343 263.858Z" fill="#181940"/>
<path d="M344.99 259.731C346.963 259.731 348.562 258.822 348.562 257.701C348.562 256.581 346.963 255.672 344.99 255.672C343.017 255.672 341.417 256.581 341.417 257.701C341.417 258.822 343.017 259.731 344.99 259.731Z" fill="#181940"/>
<path d="M360.612 248.675C362.013 249.445 362.013 250.774 360.612 251.544C359.211 252.313 356.969 252.313 355.568 251.544C354.167 250.774 354.167 249.445 355.568 248.675C356.969 247.905 359.211 247.905 360.612 248.675Z" fill="#181940"/>
<path d="M373.78 241.118C375.181 241.887 375.181 243.217 373.78 243.987C372.379 244.756 370.138 244.756 368.737 243.987C367.336 243.217 367.336 241.887 368.737 241.118C370.138 240.348 372.379 240.348 373.78 241.118Z" fill="#181940"/>
<path d="M334.343 248.675C335.744 249.445 335.744 250.774 334.343 251.544C332.942 252.313 330.701 252.313 329.3 251.544C327.899 250.774 327.899 249.445 329.3 248.675C330.701 247.905 332.942 247.905 334.343 248.675Z" fill="#181940"/>
<path d="M347.512 241.118C348.913 241.887 348.913 243.217 347.512 243.987C346.111 244.756 343.869 244.756 342.468 243.987C341.067 243.217 341.067 241.887 342.468 241.118C343.869 240.348 346.111 240.348 347.512 241.118Z" fill="#181940"/>
<path d="M426.948 300.662C428.349 301.432 428.349 302.762 426.948 303.531C425.547 304.301 423.306 304.301 421.905 303.531C420.504 302.762 420.504 301.432 421.905 300.662C423.376 299.823 425.617 299.823 426.948 300.662Z" fill="#181940"/>
<path d="M440.118 293.035C441.519 293.805 441.519 295.134 440.118 295.904C438.717 296.674 436.476 296.674 435.075 295.904C433.674 295.134 433.674 293.805 435.075 293.035C436.476 292.266 438.717 292.266 440.118 293.035Z" fill="#181940"/>
<path d="M373.712 410.655C365.166 374.201 346.463 317.804 310.178 296.254C303.243 292.125 293.926 286.598 288.602 283.449L286.291 259.239C288.322 258.26 290.424 257.07 292.455 255.741L292.735 255.601L293.506 255.041C298.549 251.682 302.402 247.554 303.873 240.347L306.745 227.683L316.692 183.391C317.042 181.992 317.393 180.593 317.673 179.123L317.953 178.004L317.883 177.934C318.443 174.575 318.794 171.077 318.864 167.228C319.284 128.325 292.525 80.7448 259.042 60.9432C243.701 51.847 231.162 49.6779 220.305 54.296L218.764 54.7858L217.923 55.2056C216.662 55.7654 215.471 56.4651 214.28 57.2347L185.981 72.8381L184.44 75.9868L198.239 86.3424C197.819 89.2112 197.539 92.2199 197.539 95.4386C197.469 99.147 197.469 101.946 197.889 105.794L198.099 106.704L198.379 109.083C198.659 111.182 198.94 112.371 199.36 114.471L210.568 185.071C212.389 197.665 219.114 214.598 227.66 227.193L224.788 246.295C219.534 243.146 210.077 236.989 203.213 232.93C188.993 224.534 178.625 224.044 169.099 228.662L167.838 229.152L164.546 230.971C164.546 230.971 164.476 230.971 164.476 231.041L139.748 244.895L145.282 253.852C142.27 259.519 139.748 265.397 137.717 270.924C133.444 282.819 142.34 302.971 155.369 310.598L253.438 368.673L257.711 371.192L333.504 416.043C334.485 425.139 336.096 437.314 336.936 443.751C337.216 445.85 339.458 446.97 341.279 445.92L368.879 430.597C373.782 427.798 376.024 420.521 373.712 410.655Z" fill="#FFD5AD"/>
<path d="M371.19 424.509C362.644 388.055 343.941 331.659 307.655 310.108C300.72 305.98 291.404 300.452 286.08 297.303L225.347 330.749L220.374 293.455L248.464 275.822L281.807 268.895L283.698 259.099C288.742 255.741 289.582 251.822 291.053 244.616L304.223 241.677L314.17 197.386C314.52 195.986 314.87 194.587 315.15 193.117L315.431 191.998L315.361 191.928C315.921 188.569 316.271 185.071 316.341 181.222C316.832 142.319 290.003 94.7389 256.519 74.9373C241.179 65.8412 228.64 63.6721 217.782 68.2901L216.241 68.7799L215.401 69.1997C214.14 69.7595 212.949 70.4592 211.758 71.2289L183.458 86.8323L181.917 89.9809L195.717 100.337C195.296 103.205 195.016 106.214 195.016 109.433C194.946 113.141 194.946 115.94 195.367 119.788L195.577 120.698L195.857 123.077C196.137 125.176 196.417 126.366 196.838 128.465L208.045 199.065C209.867 211.659 216.591 228.592 225.137 241.187L222.265 260.289C217.012 257.14 207.555 250.983 200.69 246.925C186.47 238.528 176.103 238.038 166.576 242.656L165.315 243.146L162.023 244.895C162.023 244.895 161.953 244.895 161.953 244.965L137.226 258.75L142.76 267.706C139.748 273.373 137.226 279.251 135.194 284.779C130.921 296.674 139.818 316.825 152.847 324.452L250.915 382.527L255.188 385.046L330.981 429.897C331.962 438.993 333.223 429.547 334.064 435.915C334.344 438.014 336.585 439.133 338.407 438.084L358.511 436.614L359.351 427.378C364.255 424.649 373.501 434.375 371.19 424.509Z" fill="#FFEECC"/>
<path d="M339.808 448.93C338.967 448.93 338.127 448.72 337.286 448.37C335.675 447.53 334.554 445.991 334.274 444.172C333.504 438.084 332.032 426.679 330.982 417.723L154.038 312.837C140.098 304.581 130.641 282.96 135.265 270.015C137.296 264.278 139.678 258.89 142.27 253.922L136.035 243.917L168.118 226.284C178.905 221.036 190.533 222.436 204.543 230.762C208.256 232.931 212.669 235.73 216.802 238.319C218.903 239.648 221.005 240.978 222.826 242.097L224.927 227.893C216.662 215.439 209.867 198.576 207.976 185.561L196.488 113.422C196.207 112.092 195.997 111.043 195.787 109.433L195.367 106.425C194.876 102.017 194.876 98.8679 194.946 95.5093C194.946 92.9904 195.157 90.4015 195.507 87.6026L181.217 76.8272L184.019 71.0196L213.019 54.9964C214.14 54.2967 215.471 53.527 216.802 52.8973L217.432 52.5475L219.394 51.8478C230.742 47.0198 244.191 49.2588 260.232 58.7748C294.346 78.9963 321.735 127.696 321.315 167.369C321.315 170.378 321.035 173.456 320.614 176.675L320.755 176.745L320.194 179.754C319.914 181.223 319.564 182.692 319.213 184.092L306.395 240.908C304.573 249.794 299.32 254.272 294.906 257.211L294.206 257.771C292.315 258.96 290.633 259.94 289.022 260.849L291.054 281.98L311.508 294.155C347.513 315.496 366.567 369.024 376.233 410.166C378.685 420.662 376.374 429.408 370.069 432.907L342.47 448.23C341.699 448.65 340.719 448.93 339.808 448.93ZM143.39 245.806L148.294 253.712L147.593 255.042C144.861 260.15 142.34 265.817 140.168 271.765C136.315 282.47 144.791 301.292 156.7 308.359L335.885 414.504L336.025 415.764C337.006 424.79 338.617 437.035 339.458 443.402L367.547 428.289C371.61 425.98 373.081 419.332 371.19 411.286C363.485 378.4 345.062 320.044 308.846 298.563L286.08 285.059L283.418 257.771L285.03 257.001C286.991 256.021 288.952 254.902 290.914 253.642L291.824 253.013C297.358 249.304 300.02 245.526 301.211 239.858L314.03 182.902C314.38 181.503 314.73 180.173 314.94 178.704L315.081 177.585C315.641 173.946 315.991 170.588 315.991 167.299C316.412 129.305 290.213 82.6347 257.5 63.2529C243 54.6466 231.092 52.5475 221.145 56.7457L219.043 57.5853C217.712 58.2151 216.662 58.7748 215.541 59.4745L187.591 75.2179L200.901 85.2236L200.69 86.763C200.27 89.9816 200.06 92.7804 199.99 95.5093C199.92 99.3577 199.92 101.947 200.34 105.515L200.48 106.075L200.831 108.734C201.041 110.133 201.181 111.113 201.461 112.302L201.811 113.981L213.019 184.652C214.84 197.316 221.565 213.759 229.691 225.724L230.251 226.564L226.679 250.494L223.316 248.535C220.865 247.065 217.432 244.966 213.86 242.657C209.727 240.068 205.384 237.339 201.741 235.17C189.202 227.753 179.396 226.424 170.079 230.972L168.678 231.532L143.39 245.806Z" fill="#181940"/>
<path d="M343.38 427.659C334.834 391.205 316.131 334.808 279.846 313.257C272.911 309.129 263.594 303.602 258.271 300.453L255.959 276.243C263.034 272.675 271.44 267.567 273.541 257.351L276.413 244.686L286.36 200.395C286.711 198.996 287.061 197.596 287.341 196.127L287.621 195.007L287.551 194.938C288.112 191.579 288.462 188.08 288.532 184.232C288.952 145.328 262.193 97.7486 228.71 77.947C195.227 58.1453 167.697 73.5388 167.277 112.442C167.207 116.151 167.207 118.95 167.627 122.798L167.837 123.708L168.118 126.087C168.398 128.186 168.678 129.375 169.098 131.474L180.306 202.074C182.127 214.669 188.852 231.602 197.398 244.197L194.526 263.299C189.272 260.15 179.816 253.993 172.951 249.934C136.525 228.383 116.772 261.969 107.455 287.858C103.182 299.753 112.078 319.905 125.107 327.531L223.176 385.607L227.449 388.126L325.168 445.991C337.987 453.688 347.303 444.382 343.38 427.659Z" fill="#FFD5AD"/>
<path d="M333.713 451.379C330.631 451.379 327.199 450.33 323.696 448.301L123.706 329.771C109.766 321.514 100.31 299.893 104.933 286.949C111.027 270.156 121.955 248.745 139.818 242.308C150.325 238.529 161.883 240.348 174.212 247.625C177.854 249.794 182.267 252.593 186.4 255.182C188.572 256.512 190.673 257.841 192.494 259.031L194.596 244.757C186.33 232.302 179.535 215.439 177.644 202.424L166.156 130.285C165.876 129.026 165.666 127.906 165.455 126.367L165.035 123.358C164.545 118.95 164.545 115.801 164.615 112.443C164.825 92.6409 171.83 77.9471 184.299 70.95C196.767 63.953 212.949 65.6323 230.041 75.778C264.155 95.9995 291.544 144.699 291.123 184.372C291.123 187.311 290.843 190.39 290.423 193.608L290.563 193.678L289.933 196.757C289.652 198.156 289.302 199.626 288.952 201.095L276.133 257.981C274.031 268.267 266.396 273.794 258.761 277.783L260.792 298.914L281.247 311.089C317.252 332.43 336.305 385.957 346.042 427.099C348.354 436.895 346.532 445.152 341.139 449.14C338.827 450.61 336.375 451.379 333.713 451.379ZM150.815 245.666C147.593 245.666 144.511 246.226 141.569 247.276C125.598 253.013 115.511 272.955 109.837 288.768C105.984 299.473 114.46 318.295 126.368 325.362L326.428 443.822C331.051 446.551 335.114 446.901 337.916 444.872C341.489 442.213 342.68 435.846 340.858 428.219C333.153 395.333 314.73 336.978 278.515 315.497L255.819 301.992L253.157 274.704L254.768 273.934C262.123 270.296 269.128 265.678 270.949 256.861L283.768 199.906C284.119 198.506 284.469 197.177 284.679 195.777L284.889 194.658C285.449 191.019 285.8 187.661 285.8 184.372C286.22 146.378 260.022 99.7079 227.309 80.3261C211.968 71.2299 197.608 69.5506 186.82 75.5681C176.033 81.5856 170.009 94.74 169.799 112.582C169.728 116.431 169.728 119.02 170.149 122.588L170.289 123.148L170.639 125.807C170.849 127.206 170.989 128.186 171.27 129.375L171.62 131.055L182.828 201.725C184.649 214.389 191.374 230.832 199.499 242.727L200.06 243.567L196.487 267.497L193.125 265.538C190.603 264.068 187.241 261.899 183.598 259.59C179.535 257.001 175.192 254.273 171.55 252.103C164.265 247.835 157.33 245.666 150.815 245.666Z" fill="#181940"/>
<path d="M319.073 172.478L316.762 146.169L286.361 163.242L289.863 181.434L276.203 247.206L275.363 247.696L271.86 261.9L260.582 274.355L255.889 276.244L258.201 300.384L288.602 283.451L286.22 259.241L299.95 251.474L304.643 235.591L306.254 229.994L319.073 172.478Z" fill="#181940"/>
<path d="M336.165 401.069L365.446 383.717L373.291 405.408L374.412 419.052L372.03 429.408L341.279 445.921L344.291 433.186L338.196 406.317L336.165 401.069Z" fill="#181940"/>
<path d="M454.407 106.285C454.407 68.5706 426.108 22.2502 392.694 7.20653C380.296 1.6089 370.068 1.11911 361.452 5.80713L360.402 6.29692H360.332C360.261 6.36689 360.191 6.36689 360.121 6.43686L333.012 22.3901C331.752 23.0898 331.401 24.7691 332.312 25.9586L343.73 41.3521C343.38 68.2907 357.67 99.9173 378.124 121.398V144.069C378.124 148.267 382.467 153.025 385.199 151.765L403.482 143.509L410.066 155.264C410.767 156.523 412.448 157.013 413.709 156.244L438.016 142.109V142.04C448.103 136.442 454.407 124.057 454.407 106.285Z" fill="#FFD5AD"/>
<path d="M451.815 119.579C451.815 81.8645 423.515 35.5441 390.102 20.5005C377.703 14.9028 367.476 14.4131 358.86 19.1011L357.809 19.6608H357.739C357.669 19.7308 357.599 19.7308 357.529 19.8008L330.42 35.6841C329.159 36.3838 328.809 38.0631 329.72 39.2526L341.138 54.646C340.787 81.5847 355.077 113.211 375.532 134.692V157.363C375.532 161.561 390.452 152.255 393.184 150.995L400.889 156.803L408.175 149.946L425.196 149.596V139.59C435.213 133.923 451.815 137.351 451.815 119.579Z" fill="#FFEECC"/>
<path d="M412.308 159.252C411.818 159.252 411.397 159.182 410.907 159.042C409.506 158.692 408.385 157.783 407.685 156.523L402.221 146.867L386.11 154.144C384.428 154.914 382.467 154.634 380.576 153.445C377.984 151.765 375.392 147.987 375.392 144.069V122.448C354.307 99.9872 340.928 68.7104 340.998 42.1916L330.14 27.4978C329.3 26.3783 328.95 24.9089 329.23 23.5095C329.51 22.1101 330.421 20.9206 331.611 20.151L360.191 3.498C369.438 -1.53987 380.436 -1.12005 393.675 4.82743C427.368 19.941 456.929 67.381 456.929 106.285C456.929 123.707 451.115 136.862 440.468 143.579L439.137 144.348L414.83 158.482C414.129 158.972 413.219 159.252 412.308 159.252ZM404.462 140.15L412.238 154.004L436.615 139.87C446.352 134.413 451.746 122.448 451.746 106.285C451.746 69.1302 423.656 23.9993 391.573 9.58542C379.875 4.33764 370.419 3.84785 362.643 8.11604L361.522 8.67581L334.273 24.699L346.252 40.5823V41.4919C345.901 66.7513 359.421 98.168 379.945 119.719L380.646 120.489V144.208C380.646 146.867 383.238 149.526 384.148 149.526L404.462 140.15Z" fill="#181940"/>
<path d="M427.72 121.817C427.72 84.1033 399.42 37.7829 366.006 22.7393C341.139 11.544 320.685 22.8092 317.392 49.5379C313.96 77.9459 329.021 113.491 351.366 136.931V159.601C351.366 163.8 355.709 168.558 358.441 167.298L380.086 157.502C406.985 168.698 427.72 154.004 427.72 121.817Z" fill="#FFD5AD"/>
<path d="M357.46 170.096C356.339 170.096 355.148 169.746 353.958 168.977C351.366 167.298 348.774 163.519 348.774 159.601V137.98C325.448 113.07 311.508 76.7558 314.8 49.2575C316.481 35.6132 322.576 25.1177 332.102 19.7999C341.699 14.4122 354.098 14.6221 367.057 20.4296C400.75 35.5432 430.311 82.9832 430.311 121.887C430.311 138.89 424.637 152.044 414.41 158.901C405.233 164.989 393.115 165.548 380.086 160.44L359.491 169.747C358.861 169.956 358.16 170.096 357.46 170.096ZM347.723 21.0594C342.96 21.0594 338.477 22.1089 334.694 24.278C326.708 28.7561 321.525 37.8523 320.054 49.8172C316.832 76.1261 330.561 111.181 353.327 135.041L354.028 135.811V159.531C354.028 162.19 356.619 164.849 357.53 164.849L380.086 154.633L381.137 155.053C392.905 159.951 403.692 159.671 411.608 154.423C420.364 148.615 425.197 137 425.197 121.747C425.197 84.5925 397.108 39.4616 365.025 25.0477C358.931 22.3888 353.047 21.0594 347.723 21.0594Z" fill="#181940"/>
<path d="M422.886 92.9193L449.784 77.3159L454.408 91.24V114.68L451.816 127.135L432.132 146.517L416.231 154.003L427.719 130.843V106.284L422.886 92.9193Z" fill="#181940"/>
<path d="M374.342 105.653L369.158 67.7294C369.088 67.0996 369.018 66.4699 369.018 65.9101C369.018 60.8723 371.82 60.0326 377.564 63.3212C383.238 66.6099 386.04 70.7381 386.04 75.706C386.04 76.4057 385.97 76.9655 385.9 77.4553L380.716 109.362L374.342 105.653ZM377.494 114.68C382.468 117.548 384.919 121.816 384.919 127.554C384.919 133.292 382.468 134.691 377.494 131.822C372.521 128.953 370.069 124.685 370.069 118.948C370.069 113.21 372.591 111.811 377.494 114.68Z" fill="#FEEDCC"/>
<path d="M368.178 100.966L362.995 63.0419C362.925 62.4122 362.854 61.7824 362.854 61.2227C362.854 56.1848 365.727 55.3451 371.401 58.6337C377.075 61.9224 379.947 66.0506 379.947 71.0185C379.947 71.7182 379.876 72.278 379.806 72.7678L374.623 104.674L368.178 100.966ZM371.33 109.922C376.304 112.791 378.756 117.059 378.756 122.797C378.756 128.534 376.304 129.934 371.33 127.065C366.357 124.196 363.905 119.928 363.905 114.19C363.835 108.523 366.357 107.053 371.33 109.922Z" fill="#15100C"/>
<path d="M167.206 337.255C167.206 292.264 133.443 236.917 93.5848 219.005C78.8045 212.358 66.5459 211.728 56.3187 217.326L55.0578 217.955H54.9878C54.9177 218.025 54.8477 218.025 54.7076 218.095L22.3449 237.057C20.8739 237.897 20.4536 239.926 21.5043 241.256L35.0238 259.728C34.5335 291.914 51.6254 329.628 76.0725 355.237V382.316C76.0725 387.354 81.2562 393.021 84.4784 391.552L106.264 381.686L114.109 395.75C114.95 397.29 116.911 397.849 118.452 396.94L147.453 380.077V380.007C159.641 373.22 167.206 358.456 167.206 337.255Z" fill="#FFD5AD"/>
<path d="M164.055 353.139C164.055 308.148 130.291 252.801 90.433 234.889C75.6526 228.242 63.394 227.612 53.1669 233.209L51.906 233.839H51.8359C51.7659 233.909 51.6958 233.909 51.5557 233.979L19.1931 252.941C17.722 253.781 17.3017 255.81 18.3525 257.139L31.942 275.542C31.4516 307.728 48.5436 345.442 72.9907 371.051V398.13C72.9907 403.168 90.7832 392.042 94.0755 390.503L103.252 397.43L111.938 389.243L132.252 388.824V376.929C144.301 370.281 164.055 374.34 164.055 353.139Z" fill="#FFEECC"/>
<path d="M116.981 400.439C116.421 400.439 115.86 400.369 115.3 400.229C113.689 399.809 112.288 398.689 111.447 397.22L104.933 385.675L85.7393 394.351C83.7078 395.261 81.3962 394.981 79.1546 393.512C76.0725 391.552 72.9203 387.004 72.9203 382.316V356.497C47.7727 329.698 31.8015 292.334 31.8715 260.778L18.9125 243.215C17.9318 241.816 17.5115 240.066 17.8617 238.457C18.212 236.778 19.2627 235.378 20.7337 234.469L54.8476 214.597C65.8453 208.58 78.9445 209.07 94.8456 216.206C135.054 234.259 170.358 290.865 170.358 337.255C170.358 358.037 163.424 373.78 150.745 381.756L149.204 382.736L120.203 399.599C119.153 400.159 118.032 400.439 116.981 400.439ZM107.595 377.628L116.841 394.141L145.981 377.208C157.61 370.631 164.054 356.427 164.054 337.115C164.054 292.824 130.501 238.877 92.2538 221.734C78.3141 215.507 67.0362 214.877 57.7196 219.985L56.3887 220.685L23.886 239.787L38.176 258.748V259.798C37.7557 289.955 53.937 327.459 78.3841 353.139L79.2247 354.048V382.316C79.2247 385.465 82.3068 388.614 83.4276 388.684L107.595 377.628Z" fill="#181940"/>
<path d="M135.265 355.727C135.265 310.736 101.501 255.389 61.6435 237.477C31.9427 224.112 7.56565 237.547 3.64291 269.453C-0.489987 303.319 17.5126 345.721 44.2013 373.709V400.788C44.2013 405.825 49.3849 411.493 52.6072 410.024L78.3852 398.339C110.538 411.703 135.265 394.21 135.265 355.727Z" fill="#FFD5AD"/>
<path d="M51.486 413.382C50.155 413.382 48.684 412.962 47.283 412.053C44.2009 410.094 41.0487 405.546 41.0487 400.858V375.038C13.1691 345.301 -3.43248 301.919 0.560311 269.173C2.52168 252.87 9.87683 240.345 21.1547 233.978C32.6428 227.541 47.4231 227.751 62.904 234.678C103.112 252.73 138.417 309.336 138.417 355.727C138.417 376.088 131.692 391.761 119.434 399.878C108.506 407.155 94.0058 407.785 78.5249 401.697L53.9377 412.892C53.1672 413.242 52.3266 413.382 51.486 413.382ZM39.8578 235.517C34.1138 235.517 28.8601 236.777 24.3069 239.366C14.7803 244.754 8.5459 255.599 6.79468 269.873C2.94198 301.29 19.2634 343.132 46.5125 371.61L47.3531 372.52V400.788C47.3531 403.936 50.4352 407.155 51.556 407.155L78.4549 394.98L79.7157 395.47C93.7256 401.277 106.615 400.997 116.071 394.7C126.509 387.703 132.253 373.849 132.253 355.727C132.253 311.435 98.699 257.488 60.4523 240.345C53.2372 237.127 46.2323 235.517 39.8578 235.517Z" fill="#181940"/>
<path d="M129.59 321.373L161.673 302.69L167.206 319.273V347.262L164.054 362.095L140.588 385.256L121.604 394.212L135.264 366.573V337.256L129.59 321.373Z" fill="#181940"/>
<path d="M67.0368 342.292C73.131 345.79 76.2132 351.108 76.2132 358.175C76.2132 365.242 73.131 366.991 67.0368 363.493C60.9425 359.994 57.8604 354.676 57.8604 347.609C57.8604 340.542 60.8725 338.793 67.0368 342.292ZM62.4836 330.746V311.015L69.9088 315.353C70.9595 321.93 73.131 326.198 76.5634 328.088C81.1166 330.676 83.3582 327.108 83.3582 317.312C83.3582 302.338 80.4862 293.242 74.8122 289.954C70.3991 287.435 68.1576 289.814 68.1576 297.161C68.1576 299.05 68.3677 301.989 68.788 305.907L60.7324 298.49C60.1019 294.782 59.8217 292.193 59.8217 290.653C59.8217 280.088 65.7759 278.199 77.6842 285.056C92.8148 293.802 100.38 306.537 100.38 323.33C100.38 330.257 98.4888 335.085 94.7762 337.813C91.0636 340.542 86.5805 340.472 81.3268 337.464C77.7543 335.434 74.1818 331.796 70.3991 326.688V335.434L62.4836 330.746Z" fill="#FEEDCC"/>
<path d="M60.5929 336.415C66.6872 339.914 69.7694 345.231 69.7694 352.298C69.7694 359.365 66.6872 361.115 60.5929 357.616C54.4987 354.118 51.4165 348.8 51.4165 341.733C51.4165 334.666 54.4987 332.917 60.5929 336.415ZM56.0397 324.87V305.138L63.4649 309.476C64.5157 316.054 66.6872 320.322 70.1196 322.211C74.6728 324.8 76.9144 321.231 76.9144 311.436C76.9144 296.462 74.0423 287.366 68.3684 284.077C63.9553 281.558 61.7137 283.937 61.7137 291.284C61.7137 293.173 61.9239 296.112 62.3442 300.03L54.2885 292.614C53.6581 288.905 53.3779 286.316 53.3779 284.777C53.3779 274.211 59.332 272.322 71.2404 279.179C86.371 287.926 93.9363 300.66 93.9363 317.453C93.9363 324.38 92.045 329.208 88.3324 331.937C84.6198 334.666 80.1366 334.596 74.8829 331.587C71.3104 329.558 67.7379 325.919 63.9553 320.812V329.558L56.0397 324.87Z" fill="#15100C"/>
</g>
<defs>
<clipPath id="clip0_3_496">
<rect width="457" height="473" fill="white"/>
</clipPath>
</defs>
</svg>
