<svg width="157" height="160" viewBox="0 0 157 160" fill="none" xmlns="http://www.w3.org/2000/svg">
<path d="M9.9104 160V134.109L62.3624 79.648C72.9272 68.7856 78.2096 59.56 78.2096 51.9712C78.2096 47.0608 76.7216 43.1176 73.7456 40.1416C70.7696 37.0168 66.6776 35.4544 61.4696 35.4544C51.0536 35.4544 43.3904 41.1088 38.48 52.4176L8.348 34.7848C13.1096 23.6248 20.252 15.1432 29.7752 9.34C39.2984 3.53679 49.7144 0.635192 61.0232 0.635192C75.6056 0.635192 88.0304 5.17359 98.2976 14.2504C108.714 23.1784 113.922 35.2312 113.922 50.4088C113.922 66.9256 105.812 83.2936 89.5928 99.5128L63.7016 125.627H116.154V160H9.9104Z" fill="#FFD5AD"/>
<line y1="-1.5" x2="88.2383" y2="-1.5" transform="matrix(-0.943805 0.330502 0.330502 0.943805 117.28 10)" stroke="white" stroke-width="3"/>
<line y1="-1.5" x2="103.963" y2="-1.5" transform="matrix(-0.935881 0.352315 0.309724 0.950826 98.2969 26)" stroke="white" stroke-width="3"/>
<line y1="-1.5" x2="88.2383" y2="-1.5" transform="matrix(-0.943805 0.330502 0.330502 0.943805 156.398 23.8112)" stroke="white" stroke-width="3"/>
<line y1="-1.5" x2="103.963" y2="-1.5" transform="matrix(-0.935881 0.352315 0.309724 0.950826 144 43.3463)" stroke="white" stroke-width="3"/>
</svg>
