<svg width="27" height="27" viewBox="0 0 27 27" fill="none" xmlns="http://www.w3.org/2000/svg">
<path d="M24.1218 6.5123C20.2218 0.499801 12.2593 -1.2877 6.08435 2.4498C0.0718462 6.1873 -1.87815 14.3123 2.02185 20.3248L2.34685 20.8123L1.04685 25.6873L5.92185 24.3873L6.40935 24.7123C8.52185 25.8498 10.7968 26.4998 13.0718 26.4998C15.5093 26.4998 17.9468 25.8498 20.0593 24.5498C26.0718 20.6498 27.8593 12.6873 24.1218 6.5123ZM20.7093 19.0248C20.0593 19.9998 19.2468 20.6498 18.1093 20.8123C17.4593 20.8123 16.6468 21.1373 13.3968 19.8373C10.6343 18.5373 8.35935 16.4248 6.73435 13.9873C5.75935 12.8498 5.27185 11.3873 5.10935 9.9248C5.10935 8.6248 5.59685 7.4873 6.40935 6.6748C6.73435 6.3498 7.05935 6.1873 7.38435 6.1873H8.19685C8.52185 6.1873 8.84685 6.1873 9.00935 6.8373C9.33435 7.6498 10.1468 9.5998 10.1468 9.7623C10.3093 9.9248 10.3093 10.2498 10.1468 10.4123C10.3093 10.7373 10.1468 11.0623 9.98435 11.2248C9.82185 11.3873 9.65935 11.7123 9.49685 11.8748C9.17185 12.0373 9.00935 12.3623 9.17185 12.6873C9.82185 13.6623 10.6343 14.6373 11.4468 15.4498C12.4218 16.2623 13.3968 16.9123 14.5343 17.3998C14.8593 17.5623 15.1843 17.5623 15.3468 17.2373C15.5093 16.9123 16.3218 16.0998 16.6468 15.7748C16.9718 15.4498 17.1343 15.4498 17.4593 15.6123L20.0593 16.9123C20.3843 17.0748 20.7093 17.2373 20.8718 17.3998C21.0343 17.8873 21.0343 18.5373 20.7093 19.0248Z" fill="white"/>
</svg>
